<svg id="svg" version="1.1" width="400" height="400" viewBox="0 0 400 400" xmlns="http://www.w3.org/2000/svg" xmlns:xlink="http://www.w3.org/1999/xlink" ><g id="svgg"><path id="path0" d="M397.293 26.400 C 397.018 26.840,396.898 27.200,397.025 27.200 C 397.325 27.200,398.400 26.127,398.400 25.829 C 398.400 25.320,397.762 25.649,397.293 26.400 M328.194 35.927 C 328.300 36.034,328.075 36.374,327.694 36.683 C 327.068 37.189,327.086 37.203,327.878 36.820 C 328.986 36.284,329.343 35.733,328.582 35.733 C 328.262 35.733,328.087 35.821,328.194 35.927 M377.200 45.049 C 377.200 45.580,377.309 45.608,377.800 45.200 C 378.130 44.926,378.400 44.634,378.400 44.551 C 378.400 44.468,378.130 44.400,377.800 44.400 C 377.470 44.400,377.200 44.692,377.200 45.049 M38.000 173.800 C 38.000 174.130,38.292 174.400,38.649 174.400 C 39.180 174.400,39.208 174.291,38.800 173.800 C 38.526 173.470,38.234 173.200,38.151 173.200 C 38.068 173.200,38.000 173.470,38.000 173.800 M55.200 187.600 C 55.435 188.040,55.830 188.400,56.076 188.400 C 56.322 188.400,56.198 188.040,55.800 187.600 C 55.402 187.160,55.008 186.800,54.924 186.800 C 54.840 186.800,54.965 187.160,55.200 187.600 M78.952 206.056 C 79.002 206.317,79.484 206.792,80.022 207.110 C 80.880 207.617,80.915 207.616,80.306 207.104 C 79.925 206.783,79.745 206.375,79.906 206.196 C 80.068 206.018,79.990 205.992,79.734 206.138 C 79.478 206.285,79.176 206.219,79.064 205.992 C 78.952 205.766,78.901 205.794,78.952 206.056 M147.992 363.810 C 147.714 364.145,147.602 364.535,147.743 364.676 C 147.884 364.818,148.000 364.713,148.000 364.443 C 148.000 364.173,148.208 364.081,148.462 364.238 C 148.735 364.407,148.816 364.349,148.659 364.096 C 148.514 363.861,148.621 363.577,148.898 363.466 C 149.211 363.340,149.230 363.251,148.949 363.232 C 148.701 363.214,148.270 363.474,147.992 363.810 " stroke="none" fill="#000000" fill-rule="evenodd"></path><path id="path1" d="M359.256 14.214 C 358.612 14.756,357.885 15.200,357.642 15.200 C 357.399 15.200,357.245 15.406,357.300 15.658 C 357.355 15.909,356.770 16.284,356.000 16.490 C 355.230 16.696,354.015 17.480,353.301 18.232 C 352.586 18.985,351.765 19.600,351.476 19.600 C 351.187 19.600,350.564 19.960,350.092 20.400 C 349.620 20.840,348.977 21.200,348.663 21.200 C 348.350 21.200,347.999 21.560,347.884 22.000 C 347.755 22.492,347.338 22.800,346.800 22.800 C 346.278 22.800,345.845 23.105,345.727 23.557 C 345.612 23.998,345.043 24.411,344.365 24.547 C 343.724 24.675,343.200 25.032,343.200 25.340 C 343.200 25.648,342.648 26.010,341.973 26.145 C 341.299 26.280,340.852 26.560,340.979 26.767 C 341.209 27.138,339.712 27.843,339.066 27.668 C 338.882 27.618,338.636 27.942,338.519 28.389 C 338.402 28.835,338.058 29.200,337.753 29.200 C 337.449 29.200,337.200 29.389,337.200 29.621 C 337.200 29.852,336.660 30.230,336.000 30.460 C 335.341 30.690,334.901 31.040,335.024 31.239 C 335.147 31.438,334.973 31.600,334.638 31.600 C 334.302 31.600,333.417 32.136,332.671 32.791 C 331.925 33.446,331.216 33.882,331.094 33.761 C 330.973 33.639,330.754 33.913,330.610 34.370 C 330.465 34.826,330.162 35.200,329.937 35.200 C 329.712 35.200,329.229 35.569,328.864 36.021 C 328.291 36.728,327.601 37.037,326.300 37.169 C 326.135 37.186,326.000 37.470,326.000 37.800 C 326.000 38.133,325.644 38.400,325.200 38.400 C 324.667 38.400,324.400 38.667,324.400 39.200 C 324.400 39.716,324.133 40.000,323.649 40.000 C 323.236 40.000,322.651 40.305,322.349 40.677 C 321.876 41.260,321.883 41.307,322.400 41.013 C 322.737 40.821,322.862 40.824,322.685 41.018 C 322.512 41.208,321.885 41.429,321.292 41.508 C 320.188 41.656,319.499 42.312,319.850 42.881 C 319.958 43.056,319.689 43.200,319.251 43.200 C 318.812 43.200,318.346 43.541,318.214 43.957 C 318.082 44.373,317.601 44.811,317.147 44.930 C 316.692 45.049,316.438 45.338,316.583 45.573 C 316.735 45.818,316.525 46.000,316.090 46.000 C 315.674 46.000,315.198 46.135,315.033 46.300 C 314.868 46.465,314.523 46.600,314.267 46.600 C 314.010 46.600,313.800 46.870,313.800 47.200 C 313.800 47.530,313.395 47.858,312.900 47.928 C 312.322 48.010,312.000 48.332,312.000 48.828 C 312.000 49.253,311.865 49.579,311.700 49.553 C 310.875 49.422,310.400 49.659,310.400 50.200 C 310.400 50.533,310.044 50.800,309.600 50.800 C 309.067 50.800,308.800 51.067,308.800 51.600 C 308.800 52.125,308.533 52.400,308.024 52.400 C 307.597 52.400,307.134 52.583,306.996 52.807 C 306.858 53.030,306.549 53.092,306.311 52.945 C 306.066 52.793,305.990 52.861,306.138 53.099 C 306.285 53.338,305.876 53.705,305.200 53.940 C 304.540 54.170,304.000 54.626,304.000 54.952 C 304.000 55.279,303.640 55.660,303.200 55.800 C 302.760 55.940,302.400 56.312,302.400 56.627 C 302.400 56.942,302.142 57.200,301.827 57.200 C 301.512 57.200,301.146 57.541,301.014 57.957 C 300.882 58.373,300.419 58.806,299.987 58.919 C 299.554 59.033,299.200 59.412,299.200 59.763 C 299.200 60.119,298.869 60.400,298.449 60.400 C 298.036 60.400,297.451 60.705,297.149 61.077 C 296.681 61.653,296.683 61.703,297.162 61.415 C 297.543 61.185,297.632 61.225,297.438 61.538 C 297.281 61.792,296.839 62.000,296.455 62.000 C 296.071 62.000,295.069 62.630,294.228 63.400 C 293.387 64.170,292.538 64.800,292.340 64.800 C 292.142 64.800,291.805 65.261,291.591 65.824 C 291.374 66.393,291.012 66.731,290.774 66.584 C 290.538 66.438,290.248 66.696,290.126 67.160 C 290.001 67.638,289.582 68.000,289.153 68.000 C 288.683 68.000,288.400 68.282,288.400 68.750 C 288.400 69.272,288.015 69.577,287.136 69.753 C 286.440 69.892,285.618 70.367,285.308 70.810 C 284.999 71.252,284.578 71.510,284.373 71.383 C 284.036 71.175,283.830 71.723,283.953 72.500 C 283.979 72.665,283.652 72.800,283.227 72.800 C 282.802 72.800,282.346 73.141,282.214 73.557 C 282.082 73.973,281.601 74.411,281.147 74.530 C 280.659 74.657,280.435 74.933,280.600 75.200 C 280.766 75.468,280.537 75.744,280.040 75.874 C 279.562 75.999,279.200 76.418,279.200 76.847 C 279.200 77.333,278.917 77.600,278.400 77.600 C 277.867 77.600,277.600 77.867,277.600 78.400 C 277.600 78.875,277.333 79.200,276.944 79.200 C 276.583 79.200,276.030 79.515,275.714 79.900 C 275.364 80.328,275.253 80.367,275.429 80.000 C 275.588 79.670,275.320 79.809,274.835 80.309 C 274.350 80.809,273.796 81.121,273.605 81.003 C 273.414 80.885,273.143 81.151,273.002 81.594 C 272.861 82.037,272.500 82.400,272.200 82.400 C 271.900 82.400,271.539 82.763,271.398 83.206 C 271.257 83.649,270.996 83.921,270.817 83.810 C 270.396 83.550,269.523 84.590,269.870 84.937 C 270.015 85.082,269.726 85.200,269.229 85.200 C 268.662 85.200,268.247 85.498,268.116 86.000 C 268.001 86.440,267.658 86.800,267.353 86.800 C 266.853 86.800,266.625 87.293,266.753 88.100 C 266.779 88.265,266.452 88.400,266.027 88.400 C 265.602 88.400,265.146 88.741,265.014 89.157 C 264.882 89.573,264.401 90.011,263.947 90.130 C 263.459 90.257,263.235 90.533,263.400 90.800 C 263.566 91.068,263.337 91.344,262.840 91.474 C 262.362 91.599,262.000 92.018,262.000 92.447 C 262.000 92.933,261.717 93.200,261.200 93.200 C 260.667 93.200,260.400 93.467,260.400 94.000 C 260.400 94.533,260.133 94.800,259.600 94.800 C 259.156 94.800,258.800 95.067,258.800 95.400 C 258.800 95.730,258.446 96.000,258.014 96.000 C 257.582 96.000,257.046 96.341,256.823 96.758 C 256.599 97.175,255.860 97.710,255.178 97.948 C 254.497 98.185,254.054 98.563,254.193 98.788 C 254.331 99.013,253.985 99.406,253.423 99.663 C 252.860 99.919,252.400 100.400,252.400 100.731 C 252.400 101.062,252.282 101.215,252.137 101.070 C 251.775 100.708,250.756 101.605,251.028 102.045 C 251.149 102.240,250.877 102.400,250.424 102.400 C 249.971 102.400,249.600 102.573,249.600 102.784 C 249.600 102.995,249.107 103.625,248.504 104.184 C 247.901 104.743,247.586 105.203,247.804 105.206 C 248.022 105.209,247.750 105.449,247.200 105.739 C 246.650 106.028,246.245 106.476,246.300 106.733 C 246.355 106.990,246.040 107.200,245.600 107.200 C 245.083 107.200,244.800 107.467,244.800 107.953 C 244.800 108.370,244.443 108.800,244.000 108.916 C 243.560 109.031,243.200 109.391,243.200 109.716 C 243.200 110.041,242.840 110.401,242.400 110.516 C 241.960 110.631,241.600 111.012,241.600 111.363 C 241.600 111.720,241.269 112.000,240.847 112.000 C 240.418 112.000,239.999 112.362,239.874 112.840 C 239.752 113.304,239.462 113.562,239.226 113.416 C 238.988 113.269,238.626 113.607,238.409 114.176 C 238.195 114.739,237.745 115.200,237.410 115.200 C 237.074 115.200,236.800 115.366,236.800 115.568 C 236.800 116.033,233.256 119.600,232.795 119.600 C 232.608 119.600,232.346 119.941,232.214 120.357 C 232.082 120.773,231.601 121.211,231.147 121.330 C 230.659 121.457,230.435 121.733,230.600 122.000 C 230.766 122.268,230.537 122.544,230.040 122.674 C 229.562 122.799,229.200 123.218,229.200 123.647 C 229.200 124.133,228.917 124.400,228.400 124.400 C 227.867 124.400,227.600 124.667,227.600 125.200 C 227.600 125.733,227.333 126.000,226.800 126.000 C 226.267 126.000,226.000 126.267,226.000 126.800 C 226.000 127.333,225.733 127.600,225.200 127.600 C 224.667 127.600,224.400 127.867,224.400 128.400 C 224.400 128.917,224.133 129.200,223.647 129.200 C 223.218 129.200,222.799 129.562,222.674 130.040 C 222.552 130.507,222.263 130.762,222.024 130.615 C 221.788 130.469,221.470 130.676,221.318 131.075 C 221.000 131.908,217.674 135.200,217.150 135.200 C 216.825 135.200,216.642 135.798,216.753 136.500 C 216.779 136.665,216.440 136.800,216.000 136.800 C 215.285 136.800,215.139 136.997,215.225 137.851 C 215.239 137.988,214.854 138.303,214.370 138.551 C 213.886 138.798,213.504 139.180,213.521 139.400 C 213.538 139.620,213.203 139.929,212.776 140.087 C 212.349 140.245,212.000 140.650,212.000 140.987 C 212.000 141.333,211.652 141.600,211.200 141.600 C 210.667 141.600,210.400 141.867,210.400 142.400 C 210.400 142.924,210.133 143.200,209.628 143.200 C 209.134 143.200,208.806 143.525,208.718 144.100 C 208.643 144.595,208.371 144.959,208.115 144.908 C 207.859 144.858,207.539 145.163,207.404 145.588 C 207.269 146.012,206.806 146.471,206.374 146.608 C 205.942 146.745,205.676 146.999,205.783 147.173 C 205.890 147.346,205.488 147.955,204.889 148.527 C 202.165 151.127,200.800 152.734,200.800 153.341 C 200.800 153.704,200.542 154.000,200.227 154.000 C 199.912 154.000,199.540 154.360,199.400 154.800 C 199.260 155.240,198.900 155.600,198.600 155.600 C 198.300 155.600,197.940 155.960,197.800 156.400 C 197.660 156.840,197.271 157.200,196.936 157.200 C 196.600 157.200,196.231 157.560,196.116 158.000 C 196.001 158.440,195.658 158.800,195.353 158.800 C 195.049 158.800,194.800 159.160,194.800 159.600 C 194.800 160.133,194.533 160.400,194.000 160.400 C 193.467 160.400,193.200 160.667,193.200 161.200 C 193.200 161.733,192.933 162.000,192.400 162.000 C 191.859 162.000,191.600 162.267,191.600 162.824 C 191.600 163.277,191.428 163.541,191.218 163.411 C 191.007 163.281,190.537 163.630,190.172 164.187 C 189.807 164.744,189.259 165.200,188.954 165.200 C 188.649 165.200,188.400 165.462,188.400 165.782 C 188.400 166.102,187.937 166.867,187.372 167.482 C 186.807 168.097,186.087 168.885,185.772 169.234 C 185.457 169.582,185.200 170.167,185.200 170.534 C 185.200 170.933,184.880 171.200,184.400 171.200 C 183.883 171.200,183.600 171.467,183.600 171.953 C 183.600 172.370,183.243 172.800,182.800 172.916 C 182.360 173.031,182.000 173.412,182.000 173.763 C 182.000 174.113,181.742 174.400,181.427 174.400 C 181.112 174.400,180.740 174.760,180.600 175.200 C 180.460 175.640,180.088 176.000,179.773 176.000 C 179.458 176.000,179.200 176.360,179.200 176.800 C 179.200 177.333,178.933 177.600,178.400 177.600 C 177.867 177.600,177.600 177.867,177.600 178.400 C 177.600 178.917,177.333 179.200,176.847 179.200 C 176.430 179.200,176.000 179.557,175.884 180.000 C 175.769 180.440,175.388 180.800,175.037 180.800 C 174.674 180.800,174.400 181.132,174.400 181.573 C 174.400 181.998,174.044 182.459,173.608 182.597 C 173.173 182.736,172.834 182.973,172.855 183.124 C 173.040 184.417,172.717 185.200,172.000 185.200 C 171.483 185.200,171.200 185.467,171.200 185.953 C 171.200 186.370,170.843 186.800,170.400 186.916 C 169.960 187.031,169.600 187.412,169.600 187.763 C 169.600 188.113,169.324 188.400,168.987 188.400 C 168.651 188.400,168.261 188.697,168.122 189.059 C 167.983 189.422,167.384 190.187,166.790 190.759 C 166.197 191.332,165.423 192.363,165.070 193.052 C 164.718 193.740,164.153 194.409,163.815 194.539 C 163.477 194.669,163.200 195.031,163.200 195.345 C 163.200 195.658,162.930 196.018,162.600 196.145 C 162.270 196.271,162.000 196.630,162.000 196.941 C 162.000 197.252,161.640 197.601,161.200 197.716 C 160.721 197.841,160.400 198.262,160.400 198.763 C 160.400 199.223,160.265 199.579,160.100 199.553 C 159.210 199.412,158.800 199.687,158.800 200.424 C 158.800 200.882,158.619 201.135,158.392 200.995 C 158.167 200.856,157.711 201.393,157.379 202.189 C 157.047 202.984,156.510 203.736,156.187 203.860 C 155.864 203.984,155.600 204.426,155.600 204.843 C 155.600 205.333,155.318 205.600,154.800 205.600 C 154.267 205.600,154.000 205.867,154.000 206.400 C 154.000 206.933,153.733 207.200,153.200 207.200 C 152.667 207.200,152.400 207.467,152.400 208.000 C 152.400 208.440,152.133 208.800,151.808 208.800 C 151.482 208.800,151.104 209.244,150.968 209.787 C 150.831 210.329,150.521 210.734,150.278 210.687 C 150.035 210.639,149.813 210.780,149.784 211.000 C 149.653 211.991,148.946 213.119,147.530 214.596 C 146.689 215.474,146.000 216.579,146.000 217.053 C 146.000 217.527,145.730 218.018,145.400 218.145 C 145.070 218.271,144.800 218.638,144.800 218.960 C 144.800 219.283,144.440 219.660,144.000 219.800 C 143.405 219.989,143.200 220.405,143.200 221.427 C 143.200 222.533,143.045 222.800,142.400 222.800 C 141.867 222.800,141.600 223.067,141.600 223.600 C 141.600 224.133,141.333 224.400,140.800 224.400 C 140.178 224.400,140.000 224.667,140.000 225.600 C 140.000 226.420,139.803 226.800,139.376 226.800 C 139.033 226.800,138.864 226.980,139.000 227.200 C 139.136 227.420,139.057 227.600,138.824 227.600 C 138.591 227.600,138.400 227.960,138.400 228.400 C 138.400 228.924,138.133 229.200,137.628 229.200 C 137.134 229.200,136.806 229.525,136.718 230.100 C 136.643 230.595,136.360 230.955,136.091 230.900 C 135.821 230.845,135.578 230.980,135.550 231.200 C 135.523 231.420,135.455 231.780,135.400 232.000 C 135.345 232.220,135.278 232.649,135.250 232.953 C 135.223 233.258,134.840 233.601,134.400 233.716 C 133.960 233.831,133.600 234.212,133.600 234.563 C 133.600 234.913,133.330 235.200,133.000 235.200 C 132.670 235.200,132.378 235.380,132.350 235.600 C 132.322 235.820,132.269 236.225,132.232 236.500 C 132.194 236.775,131.943 236.954,131.674 236.898 C 131.405 236.841,130.982 237.241,130.734 237.785 C 130.486 238.329,130.117 238.672,129.915 238.547 C 129.712 238.422,129.447 238.698,129.326 239.160 C 129.164 239.782,128.790 240.000,127.887 240.000 C 127.216 240.000,126.778 239.889,126.914 239.752 C 127.351 239.316,126.091 238.400,125.056 238.400 C 124.446 238.400,123.965 238.121,123.828 237.687 C 123.699 237.282,123.155 236.938,122.565 236.889 C 121.268 236.781,120.719 236.455,121.019 235.970 C 121.146 235.763,120.924 235.477,120.525 235.333 C 120.126 235.189,119.478 234.741,119.084 234.336 C 118.691 233.931,117.926 233.600,117.384 233.600 C 116.776 233.600,116.400 233.371,116.400 233.000 C 116.400 232.670,116.140 232.400,115.823 232.400 C 115.505 232.400,114.962 231.995,114.615 231.500 C 114.268 231.005,113.898 230.645,113.792 230.700 C 113.687 230.755,113.555 230.786,113.500 230.769 C 113.445 230.753,113.043 230.672,112.607 230.591 C 112.171 230.510,111.747 230.242,111.665 229.996 C 111.583 229.750,111.084 229.384,110.555 229.183 C 110.027 228.982,109.640 228.611,109.697 228.358 C 109.754 228.105,109.269 227.820,108.621 227.725 C 107.972 227.629,107.197 227.202,106.898 226.776 C 106.599 226.349,106.107 226.000,105.804 226.000 C 105.502 226.000,105.141 225.644,105.003 225.208 C 104.864 224.773,104.627 224.434,104.476 224.455 C 103.318 224.620,102.416 224.282,102.200 223.600 C 102.058 223.153,101.595 222.800,101.149 222.800 C 100.709 222.800,100.466 222.617,100.605 222.392 C 100.744 222.167,100.207 221.711,99.411 221.379 C 98.616 221.047,97.864 220.510,97.740 220.187 C 97.616 219.864,97.186 219.600,96.784 219.600 C 96.383 219.600,95.935 219.226,95.790 218.770 C 95.646 218.313,95.425 218.042,95.300 218.166 C 94.964 218.503,93.973 217.568,94.228 217.155 C 94.349 216.960,93.996 216.800,93.444 216.800 C 92.893 216.800,91.956 216.350,91.362 215.800 C 90.769 215.250,90.129 214.800,89.942 214.800 C 89.754 214.800,89.600 214.530,89.600 214.200 C 89.600 213.870,89.261 213.600,88.847 213.600 C 88.426 213.600,88.000 213.241,87.881 212.789 C 87.764 212.342,87.518 212.004,87.334 212.036 C 86.050 212.262,85.200 211.929,85.200 211.200 C 85.200 210.667,84.933 210.400,84.400 210.400 C 83.960 210.400,83.600 210.133,83.600 209.808 C 83.600 209.482,83.151 209.103,82.603 208.965 C 82.054 208.827,81.675 208.599,81.761 208.457 C 81.959 208.129,81.146 207.435,80.384 207.283 C 80.063 207.219,79.501 206.814,79.136 206.383 C 78.771 205.952,78.186 205.600,77.836 205.600 C 77.486 205.600,77.200 205.359,77.200 205.064 C 77.200 204.770,76.740 204.319,76.177 204.063 C 75.615 203.806,75.262 203.423,75.394 203.210 C 75.525 202.997,75.181 202.710,74.630 202.572 C 74.078 202.433,73.666 202.113,73.713 201.860 C 73.761 201.607,73.575 201.445,73.300 201.500 C 73.025 201.555,72.800 201.420,72.800 201.200 C 72.800 200.980,72.480 200.800,72.089 200.800 C 71.698 200.800,70.933 200.304,70.389 199.697 C 69.845 199.090,68.899 198.272,68.287 197.879 C 67.675 197.486,67.284 196.988,67.417 196.773 C 67.550 196.557,67.511 196.420,67.330 196.469 C 66.686 196.643,65.192 195.937,65.421 195.567 C 65.548 195.360,65.101 195.080,64.427 194.945 C 63.752 194.810,63.200 194.452,63.200 194.150 C 63.200 193.847,63.043 193.600,62.850 193.600 C 62.658 193.600,61.702 192.835,60.726 191.900 C 59.750 190.965,58.782 190.155,58.576 190.100 C 58.369 190.045,58.200 189.791,58.200 189.536 C 58.200 189.280,57.660 188.875,57.000 188.636 C 56.340 188.396,54.749 187.165,53.465 185.900 C 52.180 184.635,50.875 183.600,50.565 183.600 C 50.254 183.600,50.045 183.383,50.100 183.118 C 50.155 182.853,49.983 182.628,49.717 182.618 C 49.452 182.608,48.943 182.240,48.588 181.800 C 48.232 181.360,48.070 181.270,48.229 181.600 C 48.388 181.930,48.120 181.791,47.635 181.291 C 47.150 180.791,46.583 180.487,46.376 180.615 C 46.036 180.825,45.829 180.280,45.953 179.500 C 45.979 179.335,45.661 179.200,45.247 179.200 C 44.830 179.200,44.400 178.843,44.284 178.400 C 44.169 177.960,43.788 177.600,43.437 177.600 C 43.087 177.600,42.800 177.324,42.800 176.987 C 42.800 176.651,42.499 176.259,42.131 176.118 C 41.762 175.977,41.132 175.532,40.731 175.131 C 40.329 174.729,39.550 174.400,39.000 174.400 C 38.267 174.400,38.000 174.187,38.000 173.600 C 38.000 173.148,37.733 172.800,37.387 172.800 C 37.051 172.800,36.666 172.516,36.533 172.169 C 36.400 171.823,35.855 171.373,35.321 171.170 C 34.736 170.947,34.465 170.618,34.638 170.339 C 34.809 170.063,34.749 169.984,34.489 170.145 C 34.251 170.292,33.942 170.230,33.804 170.007 C 33.285 169.166,27.948 169.511,27.716 170.400 C 27.600 170.843,27.170 171.200,26.753 171.200 C 26.267 171.200,26.000 171.483,26.000 172.000 C 26.000 172.667,25.733 172.800,24.400 172.800 C 23.067 172.800,22.800 172.933,22.800 173.600 C 22.800 174.133,22.533 174.400,22.000 174.400 C 21.467 174.400,21.200 174.667,21.200 175.200 C 21.200 175.733,20.933 176.000,20.400 176.000 C 19.867 176.000,19.600 176.267,19.600 176.800 C 19.600 177.317,19.317 177.618,18.800 177.650 C 17.170 177.752,17.000 177.810,17.000 178.267 C 17.000 178.858,16.471 179.395,15.867 179.418 C 15.610 179.428,15.441 179.642,15.492 179.894 C 15.542 180.145,15.227 180.464,14.791 180.603 C 14.356 180.741,13.810 181.207,13.580 181.638 C 13.349 182.070,12.989 182.317,12.779 182.187 C 12.570 182.058,12.219 182.424,12.000 183.000 C 11.781 183.576,11.439 183.948,11.240 183.825 C 11.041 183.702,10.689 184.144,10.458 184.807 C 10.226 185.470,9.812 185.965,9.537 185.906 C 9.042 185.801,8.948 186.035,8.850 187.600 C 8.818 188.117,8.517 188.400,8.000 188.400 C 7.467 188.400,7.200 188.667,7.200 189.200 C 7.200 189.733,6.933 190.000,6.400 190.000 C 5.867 190.000,5.600 190.267,5.600 190.800 C 5.600 191.333,5.333 191.600,4.800 191.600 C 4.267 191.600,4.000 191.867,4.000 192.400 C 4.000 192.840,3.749 193.200,3.443 193.200 C 2.831 193.200,2.400 194.041,2.400 195.233 C 2.400 195.668,2.124 196.000,1.763 196.000 C 1.412 196.000,1.031 196.360,0.916 196.800 C 0.801 197.240,0.548 197.600,0.353 197.600 C 0.159 197.600,0.000 199.400,0.000 201.600 C 0.000 203.800,0.159 205.600,0.353 205.600 C 0.548 205.600,0.801 205.960,0.916 206.400 C 1.031 206.840,1.412 207.200,1.763 207.200 C 2.310 207.200,2.619 208.126,2.455 209.276 C 2.434 209.427,2.773 209.664,3.208 209.803 C 3.644 209.941,4.000 210.402,4.000 210.827 C 4.000 211.333,4.276 211.600,4.800 211.600 C 5.333 211.600,5.600 211.867,5.600 212.400 C 5.600 212.933,5.867 213.200,6.400 213.200 C 6.987 213.200,7.200 213.467,7.200 214.204 C 7.200 214.756,7.560 215.516,8.000 215.893 C 8.440 216.270,8.800 216.898,8.800 217.289 C 8.800 217.733,9.100 218.000,9.600 218.000 C 10.133 218.000,10.400 218.267,10.400 218.800 C 10.400 219.333,10.667 219.600,11.200 219.600 C 11.733 219.600,12.000 219.867,12.000 220.400 C 12.000 220.840,12.256 221.200,12.568 221.200 C 12.881 221.200,13.258 221.752,13.406 222.427 C 13.554 223.102,13.922 223.749,14.222 223.864 C 14.523 223.979,14.879 224.417,15.012 224.837 C 15.145 225.257,15.512 225.600,15.827 225.600 C 16.142 225.600,16.400 225.960,16.400 226.400 C 16.400 226.933,16.667 227.200,17.200 227.200 C 17.919 227.200,18.245 228.000,18.051 229.288 C 18.027 229.446,18.366 229.768,18.804 230.002 C 19.242 230.236,19.600 230.782,19.600 231.214 C 19.600 231.733,19.871 232.000,20.400 232.000 C 20.933 232.000,21.200 232.267,21.200 232.800 C 21.200 233.325,21.467 233.600,21.976 233.600 C 22.584 233.600,22.779 233.925,22.876 235.100 C 22.958 236.096,23.180 236.563,23.534 236.489 C 23.828 236.427,24.163 236.736,24.278 237.175 C 24.392 237.614,24.827 238.082,25.243 238.214 C 25.659 238.346,26.000 238.802,26.000 239.227 C 26.000 239.733,26.276 240.000,26.800 240.000 C 27.448 240.000,27.600 240.267,27.600 241.400 C 27.600 242.533,27.752 242.800,28.400 242.800 C 28.933 242.800,29.200 243.067,29.200 243.600 C 29.200 244.040,29.449 244.400,29.753 244.400 C 30.058 244.400,30.401 244.760,30.516 245.200 C 30.631 245.640,31.012 246.000,31.363 246.000 C 31.717 246.000,32.022 246.356,32.050 246.800 C 32.145 248.319,32.203 248.466,32.900 248.976 C 33.285 249.258,33.600 249.783,33.600 250.144 C 33.600 250.533,33.925 250.800,34.400 250.800 C 34.911 250.800,35.200 251.067,35.200 251.538 C 35.200 251.944,35.560 252.602,36.000 253.000 C 36.440 253.398,36.800 254.073,36.800 254.499 C 36.800 254.938,37.147 255.366,37.600 255.484 C 38.043 255.600,38.400 256.030,38.400 256.447 C 38.400 256.933,38.683 257.200,39.200 257.200 C 39.848 257.200,40.000 257.467,40.000 258.600 C 40.000 259.733,40.152 260.000,40.800 260.000 C 41.333 260.000,41.600 260.267,41.600 260.800 C 41.600 261.333,41.867 261.600,42.400 261.600 C 43.045 261.600,43.200 261.867,43.200 262.973 C 43.200 263.995,43.405 264.411,44.000 264.600 C 44.440 264.740,44.800 265.202,44.800 265.627 C 44.800 266.052,45.070 266.400,45.400 266.400 C 45.733 266.400,46.000 266.756,46.000 267.200 C 46.000 267.640,46.191 268.000,46.424 268.000 C 46.657 268.000,46.748 268.161,46.626 268.358 C 46.504 268.555,46.674 268.819,47.002 268.946 C 47.331 269.072,47.600 269.557,47.600 270.025 C 47.600 270.525,47.914 270.957,48.363 271.074 C 48.783 271.184,49.216 271.617,49.326 272.037 C 49.435 272.457,49.812 272.800,50.163 272.800 C 50.624 272.800,50.800 273.186,50.800 274.200 C 50.800 275.333,50.952 275.600,51.600 275.600 C 52.133 275.600,52.400 275.867,52.400 276.400 C 52.400 276.933,52.667 277.200,53.200 277.200 C 53.822 277.200,54.000 277.467,54.000 278.397 C 54.000 279.160,54.290 279.774,54.800 280.093 C 55.240 280.368,55.600 280.909,55.600 281.296 C 55.600 281.733,55.903 282.000,56.400 282.000 C 56.987 282.000,57.200 282.267,57.200 283.000 C 57.200 283.550,57.391 284.000,57.624 284.000 C 57.857 284.000,57.933 284.184,57.794 284.410 C 57.655 284.635,57.775 284.770,58.061 284.710 C 58.347 284.649,58.646 285.026,58.724 285.546 C 58.803 286.067,59.196 286.578,59.597 286.683 C 59.998 286.788,60.416 287.217,60.526 287.637 C 60.635 288.057,61.001 288.400,61.338 288.400 C 61.758 288.400,61.991 288.873,62.076 289.900 C 62.153 290.838,62.387 291.363,62.700 291.300 C 62.975 291.245,63.200 291.560,63.200 292.000 C 63.200 292.521,63.467 292.800,63.965 292.800 C 64.545 292.800,64.795 293.185,65.000 294.400 C 65.153 295.304,65.496 296.000,65.789 296.000 C 66.074 296.000,66.401 296.360,66.516 296.800 C 66.631 297.240,67.012 297.600,67.363 297.600 C 67.715 297.600,68.000 297.929,68.000 298.338 C 68.000 298.744,68.360 299.402,68.800 299.800 C 69.240 300.198,69.600 300.946,69.600 301.462 C 69.600 302.133,69.827 302.400,70.400 302.400 C 70.964 302.400,71.200 302.667,71.200 303.304 C 71.200 303.801,71.560 304.432,72.000 304.707 C 72.440 304.982,72.800 305.582,72.800 306.041 C 72.800 306.538,73.123 306.959,73.600 307.084 C 74.040 307.199,74.400 307.542,74.400 307.847 C 74.400 308.151,74.760 308.400,75.200 308.400 C 75.867 308.400,76.000 308.667,76.000 310.000 C 76.000 311.333,76.133 311.600,76.800 311.600 C 77.333 311.600,77.600 311.867,77.600 312.400 C 77.600 312.933,77.867 313.200,78.400 313.200 C 79.045 313.200,79.200 313.467,79.200 314.580 C 79.200 315.339,79.439 316.104,79.730 316.280 C 80.022 316.456,80.376 316.915,80.518 317.300 C 80.659 317.685,81.051 318.000,81.387 318.000 C 81.775 318.000,82.000 318.369,82.000 319.004 C 82.000 319.556,82.360 320.316,82.800 320.693 C 83.240 321.070,83.600 321.596,83.600 321.862 C 83.600 322.128,83.960 322.460,84.400 322.600 C 84.840 322.740,85.206 323.157,85.213 323.527 C 85.229 324.371,86.190 325.676,86.540 325.327 C 86.683 325.184,86.800 325.547,86.800 326.133 C 86.800 326.933,87.000 327.200,87.600 327.200 C 88.325 327.200,88.453 327.492,88.392 329.008 C 88.375 329.422,89.408 330.311,89.700 330.134 C 89.865 330.035,90.000 330.413,90.000 330.976 C 90.000 331.733,90.208 332.000,90.800 332.000 C 91.333 332.000,91.600 332.267,91.600 332.800 C 91.600 333.333,91.867 333.600,92.400 333.600 C 93.052 333.600,93.200 333.867,93.200 335.037 C 93.200 336.138,93.387 336.524,94.000 336.684 C 94.440 336.799,94.800 337.133,94.800 337.427 C 94.800 337.720,95.058 338.105,95.373 338.281 C 95.688 338.457,96.008 339.051,96.083 339.601 C 96.261 340.898,96.759 341.673,97.228 341.383 C 97.432 341.256,97.600 341.523,97.600 341.976 C 97.600 342.515,97.860 342.800,98.349 342.800 C 98.913 342.800,99.161 343.194,99.354 344.400 C 99.519 345.435,99.820 346.000,100.205 346.000 C 100.532 346.000,100.800 346.287,100.800 346.637 C 100.800 346.988,101.160 347.369,101.600 347.484 C 102.043 347.600,102.400 348.030,102.400 348.447 C 102.400 348.933,102.683 349.200,103.200 349.200 C 103.852 349.200,104.000 349.467,104.000 350.637 C 104.000 351.738,104.187 352.124,104.800 352.284 C 105.243 352.400,105.600 352.830,105.600 353.247 C 105.600 353.733,105.883 354.000,106.400 354.000 C 106.987 354.000,107.200 354.267,107.200 355.004 C 107.200 355.556,107.560 356.316,108.000 356.693 C 108.440 357.070,108.800 357.608,108.800 357.889 C 108.800 358.170,109.160 358.400,109.600 358.400 C 110.133 358.400,110.400 358.667,110.400 359.200 C 110.400 359.733,110.667 360.000,111.200 360.000 C 111.849 360.000,112.000 360.267,112.000 361.413 C 112.000 362.299,112.223 362.911,112.600 363.055 C 112.930 363.182,113.200 363.626,113.200 364.043 C 113.200 364.533,113.482 364.800,114.000 364.800 C 114.440 364.800,114.800 365.062,114.800 365.381 C 114.800 366.263,115.677 368.000,116.016 367.790 C 116.180 367.689,116.427 368.054,116.565 368.603 C 116.703 369.151,117.082 369.600,117.408 369.600 C 117.733 369.600,118.000 369.960,118.000 370.400 C 118.000 370.933,118.267 371.200,118.800 371.200 C 119.420 371.200,119.600 371.467,119.600 372.386 C 119.600 373.162,119.876 373.720,120.400 374.000 C 120.840 374.235,121.200 374.692,121.200 375.014 C 121.200 375.336,121.560 375.600,122.000 375.600 C 122.622 375.600,122.800 375.867,122.800 376.797 C 122.800 377.560,123.090 378.174,123.600 378.493 C 124.040 378.768,124.400 379.309,124.400 379.696 C 124.400 380.133,124.703 380.400,125.200 380.400 C 125.733 380.400,126.000 380.667,126.000 381.200 C 126.000 381.733,126.267 382.000,126.800 382.000 C 127.467 382.000,127.600 382.267,127.600 383.600 C 127.600 384.933,127.733 385.200,128.400 385.200 C 128.933 385.200,129.200 385.467,129.200 386.000 C 129.200 386.516,129.467 386.800,129.951 386.800 C 130.364 386.800,130.929 387.073,131.205 387.407 C 132.162 388.559,135.200 387.495,135.200 386.007 C 135.200 385.669,135.560 385.168,136.000 384.893 C 136.499 384.581,136.800 383.960,136.800 383.243 C 136.800 382.430,137.034 382.032,137.600 381.884 C 138.087 381.757,138.400 381.338,138.400 380.814 C 138.400 380.340,138.571 380.059,138.780 380.188 C 138.990 380.317,139.378 379.698,139.644 378.812 C 139.909 377.925,140.368 377.200,140.663 377.200 C 140.958 377.200,141.213 377.065,141.230 376.900 C 141.370 375.487,141.716 374.567,142.211 374.290 C 142.535 374.109,142.800 373.609,142.800 373.180 C 142.800 372.751,143.144 372.056,143.564 371.636 C 143.984 371.216,144.389 370.577,144.464 370.215 C 144.539 369.854,144.760 369.583,144.955 369.613 C 145.504 369.698,145.987 368.716,145.994 367.500 C 145.999 366.669,146.195 366.400,146.800 366.400 C 147.422 366.400,147.600 366.133,147.600 365.203 C 147.600 364.440,147.890 363.826,148.400 363.507 C 148.840 363.232,149.200 362.703,149.200 362.331 C 149.200 361.958,149.556 361.541,149.992 361.403 C 150.427 361.264,150.766 361.027,150.745 360.876 C 150.533 359.393,150.876 358.400,151.600 358.400 C 152.242 358.400,152.400 358.133,152.400 357.047 C 152.400 356.050,152.602 355.641,153.166 355.493 C 153.587 355.383,153.997 354.867,154.076 354.346 C 154.154 353.826,154.440 353.445,154.709 353.500 C 154.979 353.555,155.171 353.465,155.136 353.300 C 155.102 353.135,155.174 352.730,155.298 352.400 C 155.422 352.070,155.629 351.474,155.759 351.075 C 155.888 350.676,156.176 350.461,156.397 350.598 C 156.619 350.735,156.823 350.657,156.850 350.424 C 156.878 350.191,156.945 349.820,157.000 349.600 C 157.055 349.380,157.123 348.840,157.150 348.400 C 157.178 347.960,157.470 347.600,157.800 347.600 C 158.133 347.600,158.400 347.244,158.400 346.800 C 158.400 346.360,158.760 345.640,159.200 345.200 C 159.640 344.760,160.000 344.040,160.000 343.600 C 160.000 343.067,160.267 342.800,160.800 342.800 C 161.442 342.800,161.600 342.533,161.600 341.447 C 161.600 340.430,161.799 340.041,162.400 339.884 C 162.879 339.759,163.200 339.338,163.200 338.837 C 163.200 338.377,163.544 337.656,163.964 337.236 C 164.384 336.816,164.789 336.177,164.864 335.815 C 164.939 335.454,165.160 335.183,165.355 335.213 C 165.904 335.298,166.387 334.316,166.394 333.100 C 166.399 332.269,166.595 332.000,167.200 332.000 C 167.644 332.000,168.000 331.733,168.000 331.400 C 168.000 331.070,168.360 330.440,168.800 330.000 C 169.240 329.560,169.600 328.750,169.600 328.200 C 169.600 327.578,169.827 327.200,170.200 327.200 C 170.530 327.200,170.822 327.020,170.850 326.800 C 170.878 326.580,170.945 326.220,171.000 326.000 C 171.055 325.780,171.123 325.351,171.150 325.047 C 171.178 324.742,171.560 324.399,172.000 324.284 C 172.440 324.169,172.800 323.771,172.800 323.401 C 172.800 323.030,173.160 322.269,173.600 321.709 C 174.040 321.150,174.400 320.446,174.400 320.146 C 174.400 319.846,174.670 319.600,175.000 319.600 C 175.433 319.600,175.600 319.156,175.600 318.000 C 175.600 316.667,175.733 316.400,176.400 316.400 C 176.897 316.400,177.200 316.133,177.200 315.696 C 177.200 315.309,177.560 314.768,178.000 314.493 C 178.499 314.181,178.800 313.560,178.800 312.843 C 178.800 312.030,179.034 311.632,179.600 311.484 C 180.213 311.324,180.400 310.938,180.400 309.837 C 180.400 308.667,180.548 308.400,181.200 308.400 C 181.640 308.400,182.000 308.136,182.000 307.814 C 182.000 307.492,182.360 307.035,182.800 306.800 C 183.313 306.526,183.600 305.962,183.600 305.233 C 183.600 304.430,183.836 304.032,184.400 303.884 C 184.880 303.759,185.200 303.338,185.200 302.834 C 185.200 302.371,185.560 301.684,186.000 301.307 C 186.440 300.930,186.800 300.367,186.800 300.055 C 186.800 299.743,187.115 299.258,187.500 298.976 C 188.197 298.466,188.255 298.319,188.350 296.800 C 188.378 296.360,188.667 296.000,188.992 296.000 C 189.318 296.000,189.696 295.556,189.832 295.013 C 189.969 294.471,190.273 294.066,190.509 294.113 C 190.745 294.161,191.139 293.514,191.384 292.676 C 191.629 291.838,192.003 291.167,192.215 291.184 C 192.427 291.202,192.656 290.583,192.724 289.808 C 192.820 288.724,193.027 288.400,193.624 288.400 C 194.124 288.400,194.400 288.125,194.400 287.627 C 194.400 287.202,194.760 286.740,195.200 286.600 C 195.795 286.411,196.000 285.995,196.000 284.973 C 196.000 283.867,196.155 283.600,196.800 283.600 C 197.317 283.600,197.600 283.333,197.600 282.847 C 197.600 282.430,197.957 282.000,198.400 281.884 C 199.013 281.724,199.200 281.338,199.200 280.237 C 199.200 279.067,199.348 278.800,200.000 278.800 C 200.600 278.800,200.800 278.533,200.800 277.733 C 200.800 277.147,200.917 276.784,201.060 276.927 C 201.405 277.272,202.371 275.977,202.387 275.149 C 202.394 274.791,202.758 274.251,203.197 273.949 C 203.635 273.647,204.050 273.000,204.120 272.510 C 204.189 272.021,204.400 271.481,204.587 271.310 C 204.775 271.140,204.799 271.225,204.641 271.500 C 204.482 271.775,204.463 272.000,204.597 272.000 C 204.732 272.000,205.030 271.460,205.260 270.800 C 205.490 270.140,205.931 269.600,206.239 269.600 C 206.548 269.600,206.822 269.420,206.850 269.200 C 206.878 268.980,206.945 268.620,207.000 268.400 C 207.055 268.180,207.123 267.640,207.150 267.200 C 207.178 266.760,207.470 266.400,207.800 266.400 C 208.130 266.400,208.400 266.052,208.400 265.627 C 208.400 265.202,208.760 264.740,209.200 264.600 C 209.795 264.411,210.000 263.995,210.000 262.973 C 210.000 261.867,210.155 261.600,210.800 261.600 C 211.326 261.600,211.600 261.333,211.600 260.823 C 211.600 260.395,212.000 259.765,212.489 259.423 C 212.978 259.080,213.254 258.800,213.102 258.800 C 212.950 258.800,212.976 258.395,213.159 257.900 C 213.342 257.405,213.730 257.000,214.020 257.000 C 214.311 257.000,214.703 256.407,214.891 255.681 C 215.079 254.956,215.495 254.262,215.816 254.138 C 216.137 254.015,216.400 253.595,216.400 253.204 C 216.400 252.813,216.760 252.399,217.200 252.284 C 217.813 252.124,218.000 251.738,218.000 250.637 C 218.000 249.467,218.148 249.200,218.800 249.200 C 219.333 249.200,219.600 248.933,219.600 248.400 C 219.600 247.958,219.867 247.600,220.195 247.600 C 220.580 247.600,220.881 247.035,221.046 246.000 C 221.193 245.082,221.525 244.400,221.824 244.400 C 222.111 244.400,222.460 244.040,222.600 243.600 C 222.740 243.160,223.112 242.800,223.427 242.800 C 223.742 242.800,224.013 242.665,224.030 242.500 C 224.170 241.087,224.516 240.167,225.011 239.890 C 225.335 239.709,225.600 239.209,225.600 238.780 C 225.600 238.351,225.735 238.021,225.900 238.047 C 226.901 238.205,227.200 237.872,227.200 236.600 C 227.200 235.467,227.352 235.200,228.000 235.200 C 228.517 235.200,228.800 234.933,228.800 234.447 C 228.800 234.030,229.157 233.600,229.600 233.484 C 230.213 233.324,230.400 232.938,230.400 231.837 C 230.400 230.667,230.548 230.400,231.200 230.400 C 231.733 230.400,232.000 230.133,232.000 229.600 C 232.000 229.150,232.267 228.800,232.610 228.800 C 232.971 228.800,233.320 228.298,233.466 227.568 C 233.602 226.891,234.047 226.127,234.456 225.872 C 234.865 225.617,235.200 225.080,235.200 224.680 C 235.200 224.280,235.344 224.042,235.519 224.150 C 236.105 224.512,236.795 223.768,236.885 222.678 C 236.934 222.085,237.186 221.600,237.444 221.600 C 237.702 221.600,238.026 221.150,238.164 220.600 C 238.302 220.050,238.668 219.600,238.977 219.600 C 239.285 219.600,239.741 218.986,239.988 218.235 C 240.236 217.485,240.700 216.770,241.019 216.648 C 241.339 216.525,241.600 216.079,241.600 215.655 C 241.600 215.232,241.870 214.782,242.200 214.655 C 242.530 214.529,242.800 214.029,242.800 213.546 C 242.800 213.062,242.917 212.784,243.060 212.927 C 243.455 213.322,244.373 211.920,244.387 210.900 C 244.396 210.282,244.642 210.000,245.172 210.000 C 245.666 210.000,245.994 209.675,246.082 209.100 C 246.157 208.605,246.437 208.244,246.702 208.298 C 246.968 208.351,247.294 207.901,247.426 207.298 C 247.837 205.422,247.981 205.141,248.400 205.400 C 248.623 205.538,248.930 205.324,249.083 204.925 C 249.235 204.526,249.684 203.851,250.080 203.425 C 250.476 202.998,250.800 202.254,250.800 201.771 C 250.800 201.230,251.107 200.813,251.600 200.684 C 252.040 200.569,252.400 200.209,252.400 199.884 C 252.400 199.559,252.765 199.198,253.211 199.081 C 253.658 198.964,253.996 198.718,253.964 198.534 C 253.753 197.337,254.074 196.000,254.573 196.000 C 254.888 196.000,255.254 195.659,255.386 195.243 C 255.518 194.827,255.999 194.389,256.453 194.270 C 256.908 194.151,257.177 193.886,257.050 193.680 C 256.923 193.475,257.175 192.985,257.609 192.591 C 258.044 192.198,258.400 191.466,258.400 190.965 C 258.400 190.405,258.708 189.956,259.200 189.800 C 259.640 189.660,260.000 189.198,260.000 188.773 C 260.000 188.348,260.135 188.021,260.300 188.047 C 261.225 188.193,261.600 187.893,261.600 187.003 C 261.600 186.440,261.948 185.790,262.400 185.507 C 262.840 185.232,263.200 184.691,263.200 184.304 C 263.200 183.917,263.474 183.600,263.810 183.600 C 264.145 183.600,264.591 183.149,264.801 182.597 C 265.011 182.045,265.403 181.640,265.673 181.697 C 266.171 181.801,266.260 181.556,266.350 179.847 C 266.381 179.256,266.704 178.814,267.200 178.684 C 267.640 178.569,268.000 178.188,268.000 177.837 C 268.000 177.487,268.267 177.200,268.592 177.200 C 268.918 177.200,269.296 176.756,269.432 176.213 C 269.569 175.671,269.867 175.266,270.095 175.313 C 270.323 175.361,270.641 174.934,270.803 174.365 C 270.964 173.796,271.762 172.664,272.577 171.849 C 273.392 171.035,274.147 169.881,274.255 169.285 C 274.363 168.690,274.710 168.058,275.026 167.882 C 275.342 167.705,275.600 167.299,275.600 166.980 C 275.600 166.661,275.960 166.400,276.400 166.400 C 276.987 166.400,277.200 166.133,277.200 165.400 C 277.200 164.850,277.335 164.421,277.500 164.447 C 278.175 164.554,278.797 164.382,278.753 164.100 C 278.521 162.636,278.872 161.600,279.600 161.600 C 280.133 161.600,280.400 161.333,280.400 160.800 C 280.400 160.267,280.667 160.000,281.200 160.000 C 281.714 160.000,282.000 159.733,282.000 159.254 C 282.000 158.844,282.329 158.079,282.732 157.554 C 283.134 157.029,283.583 156.274,283.729 155.875 C 283.875 155.476,284.163 155.253,284.368 155.380 C 284.574 155.508,284.857 155.249,284.998 154.806 C 285.139 154.363,285.516 154.000,285.837 154.000 C 286.157 154.000,286.591 153.550,286.800 153.000 C 287.009 152.450,287.375 152.000,287.614 152.000 C 287.852 152.000,287.944 151.832,287.817 151.628 C 287.691 151.423,287.770 151.142,287.993 151.004 C 288.217 150.866,288.400 150.403,288.400 149.976 C 288.400 149.546,288.673 149.200,289.013 149.200 C 289.349 149.200,289.743 148.885,289.886 148.500 C 290.030 148.115,290.477 147.563,290.880 147.273 C 291.284 146.983,291.510 146.578,291.383 146.373 C 291.256 146.168,291.523 146.000,291.976 146.000 C 292.533 146.000,292.800 145.741,292.800 145.200 C 292.800 144.760,293.160 144.040,293.600 143.600 C 294.040 143.160,294.400 142.530,294.400 142.200 C 294.400 141.870,294.687 141.600,295.037 141.600 C 295.388 141.600,295.767 141.246,295.881 140.813 C 295.994 140.381,296.416 139.922,296.818 139.794 C 297.220 139.667,297.606 139.166,297.675 138.681 C 297.744 138.196,298.070 137.800,298.400 137.800 C 298.785 137.800,299.045 137.333,299.125 136.500 C 299.207 135.654,299.465 135.200,299.863 135.200 C 300.199 135.200,300.569 134.840,300.684 134.400 C 300.799 133.960,301.113 133.600,301.382 133.600 C 301.651 133.600,302.081 133.140,302.337 132.577 C 302.594 132.015,302.983 131.666,303.202 131.801 C 303.552 132.018,303.769 131.467,303.500 131.042 C 303.445 130.955,303.760 130.474,304.200 129.973 C 304.640 129.472,304.747 129.211,304.438 129.393 C 304.059 129.616,303.969 129.573,304.162 129.262 C 304.319 129.008,304.707 128.800,305.024 128.800 C 305.341 128.800,305.579 128.665,305.553 128.500 C 305.423 127.679,305.676 127.274,306.440 127.074 C 306.937 126.944,307.166 126.668,307.000 126.400 C 306.834 126.132,307.063 125.856,307.560 125.726 C 308.022 125.606,308.400 125.189,308.400 124.800 C 308.400 124.411,308.765 123.998,309.211 123.881 C 309.658 123.764,309.996 123.518,309.964 123.334 C 309.763 122.193,310.077 121.200,310.637 121.200 C 310.988 121.200,311.367 120.846,311.481 120.413 C 311.594 119.981,312.027 119.518,312.443 119.386 C 312.859 119.254,313.200 118.798,313.200 118.373 C 313.200 117.948,313.335 117.621,313.500 117.647 C 314.229 117.762,314.670 117.563,314.710 117.100 C 314.802 116.038,315.057 115.211,315.386 114.912 C 315.576 114.739,315.576 114.868,315.387 115.200 C 315.093 115.717,315.140 115.724,315.723 115.251 C 316.095 114.949,316.400 114.385,316.400 113.998 C 316.400 113.610,316.760 113.199,317.200 113.084 C 317.640 112.969,318.000 112.588,318.000 112.237 C 318.000 111.867,318.335 111.600,318.800 111.600 C 319.333 111.600,319.600 111.333,319.600 110.800 C 319.600 110.360,319.841 110.000,320.136 110.000 C 320.430 110.000,320.881 109.540,321.137 108.977 C 321.394 108.415,321.787 108.068,322.012 108.207 C 322.236 108.346,322.377 108.311,322.325 108.130 C 322.273 107.948,322.442 107.419,322.701 106.953 C 322.960 106.487,323.043 105.963,322.886 105.788 C 322.729 105.614,322.780 105.572,323.000 105.694 C 323.478 105.960,324.464 104.997,324.093 104.627 C 323.951 104.485,324.232 104.264,324.717 104.137 C 325.219 104.006,325.600 103.593,325.600 103.180 C 325.600 102.781,325.941 102.346,326.357 102.214 C 326.773 102.082,327.211 101.601,327.330 101.147 C 327.449 100.692,327.738 100.438,327.973 100.583 C 328.208 100.728,328.400 100.655,328.400 100.421 C 328.400 100.187,328.844 99.609,329.386 99.137 C 329.929 98.665,330.286 98.139,330.180 97.967 C 330.074 97.796,330.173 97.540,330.400 97.400 C 330.627 97.260,330.717 96.990,330.600 96.800 C 330.483 96.610,330.598 96.325,330.855 96.166 C 331.176 95.968,331.217 96.054,330.985 96.438 C 330.697 96.917,330.747 96.919,331.323 96.451 C 331.695 96.149,332.000 95.564,332.000 95.151 C 332.000 94.667,332.284 94.400,332.800 94.400 C 333.333 94.400,333.600 94.133,333.600 93.600 C 333.600 93.160,333.778 92.800,333.997 92.800 C 334.409 92.800,335.886 91.334,337.596 89.227 C 338.143 88.552,338.818 88.000,339.096 88.000 C 339.373 88.000,339.600 87.740,339.600 87.423 C 339.600 87.105,340.000 86.565,340.489 86.223 C 340.978 85.880,341.235 85.600,341.060 85.600 C 340.886 85.600,341.027 85.315,341.375 84.968 C 341.723 84.620,341.902 84.166,341.774 83.958 C 341.646 83.750,341.775 83.630,342.061 83.690 C 342.347 83.751,342.643 83.395,342.718 82.900 C 342.806 82.325,343.134 82.000,343.628 82.000 C 344.133 82.000,344.400 81.724,344.400 81.200 C 344.400 80.667,344.667 80.400,345.200 80.400 C 345.733 80.400,346.000 80.133,346.000 79.600 C 346.000 79.067,346.267 78.800,346.800 78.800 C 347.240 78.800,347.600 78.538,347.600 78.218 C 347.600 77.572,349.631 75.361,350.093 75.504 C 350.254 75.554,350.497 75.152,350.633 74.611 C 350.769 74.070,350.997 73.666,351.140 73.713 C 351.283 73.761,351.433 73.651,351.474 73.470 C 351.514 73.288,351.947 72.793,352.435 72.370 C 352.923 71.946,353.205 71.600,353.061 71.600 C 352.918 71.600,353.115 71.269,353.500 70.863 C 353.885 70.458,354.316 70.187,354.458 70.261 C 354.751 70.413,355.366 69.176,355.252 68.666 C 355.211 68.482,355.542 68.236,355.989 68.119 C 356.728 67.926,356.976 67.515,356.847 66.700 C 356.821 66.535,357.160 66.400,357.600 66.400 C 358.133 66.400,358.400 66.133,358.400 65.600 C 358.400 65.067,358.667 64.800,359.200 64.800 C 359.733 64.800,360.000 64.533,360.000 64.000 C 360.000 63.467,360.267 63.200,360.800 63.200 C 361.333 63.200,361.600 62.933,361.600 62.400 C 361.600 61.960,361.858 61.600,362.173 61.600 C 362.488 61.600,362.854 61.259,362.986 60.843 C 363.118 60.427,363.599 59.989,364.053 59.870 C 364.508 59.751,364.762 59.462,364.618 59.229 C 364.473 58.995,364.800 58.601,365.344 58.353 C 365.887 58.105,366.425 57.546,366.539 57.111 C 366.670 56.612,366.927 56.431,367.235 56.622 C 367.534 56.807,367.621 56.757,367.458 56.494 C 367.312 56.258,367.456 55.801,367.777 55.480 C 368.099 55.158,368.250 54.784,368.114 54.648 C 367.978 54.511,368.071 54.400,368.320 54.400 C 368.974 54.400,371.600 51.902,371.600 51.279 C 371.600 50.990,371.746 50.843,371.924 50.953 C 372.375 51.232,374.400 49.011,374.400 48.236 C 374.400 47.886,374.670 47.600,375.000 47.600 C 375.333 47.600,375.600 47.244,375.600 46.800 C 375.600 46.267,375.867 46.000,376.400 46.000 C 376.933 46.000,377.200 45.733,377.200 45.200 C 377.200 44.667,377.467 44.400,378.000 44.400 C 378.533 44.400,378.800 44.133,378.800 43.600 C 378.800 43.160,379.064 42.800,379.386 42.800 C 379.708 42.800,380.165 42.440,380.400 42.000 C 380.635 41.560,381.092 41.200,381.414 41.200 C 381.736 41.200,382.000 40.996,382.000 40.747 C 382.000 40.498,383.080 39.276,384.400 38.031 C 385.720 36.787,386.800 35.521,386.800 35.218 C 386.800 34.915,386.918 34.785,387.063 34.930 C 387.372 35.238,388.461 34.430,388.243 34.055 C 388.161 33.915,388.698 33.510,389.436 33.156 C 390.174 32.802,390.663 32.712,390.523 32.956 C 390.382 33.200,390.810 32.860,391.474 32.200 C 392.137 31.540,392.614 30.878,392.534 30.729 C 392.454 30.579,392.796 30.399,393.294 30.329 C 393.792 30.258,394.205 30.020,394.211 29.800 C 394.222 29.349,397.910 25.600,398.343 25.600 C 399.595 25.600,400.000 23.887,400.000 18.589 L 400.000 13.186 380.214 13.207 L 360.427 13.229 359.256 14.214 " stroke="none" fill="#37db2f" fill-rule="evenodd"></path></g></svg>