<svg id="svg" version="1.1" width="400" height="400" viewBox="0 0 400 400" xmlns="http://www.w3.org/2000/svg" xmlns:xlink="http://www.w3.org/1999/xlink" ><g id="svgg"><path id="path0" d="M325.628 223.313 C 325.613 223.704,325.878 224.132,326.217 224.262 C 327.045 224.580,327.463 224.103,326.873 223.513 C 326.509 223.149,326.394 223.173,326.372 223.620 C 326.354 223.981,326.214 223.898,326.000 223.400 C 325.699 222.700,325.653 222.689,325.628 223.313 M73.400 226.400 C 73.264 226.620,73.388 226.813,73.676 226.828 C 73.964 226.844,73.840 227.022,73.400 227.225 C 72.607 227.590,72.607 227.592,73.395 227.492 C 73.833 227.436,74.251 227.078,74.325 226.695 C 74.468 225.949,73.809 225.739,73.400 226.400 M54.600 259.200 C 54.464 259.420,54.588 259.613,54.876 259.628 C 55.164 259.644,55.040 259.822,54.600 260.025 C 53.807 260.390,53.807 260.392,54.595 260.292 C 55.033 260.236,55.451 259.878,55.525 259.495 C 55.668 258.749,55.009 258.539,54.600 259.200 M358.892 281.275 C 359.091 281.873,360.000 282.202,360.000 281.676 C 360.000 281.461,359.715 281.176,359.367 281.043 C 358.977 280.893,358.794 280.982,358.892 281.275 " stroke="none" fill="#000000" fill-rule="evenodd"></path><path id="path1" d="M196.900 21.465 C 196.625 21.576,196.400 21.922,196.400 22.233 C 196.400 22.659,195.804 22.800,194.000 22.800 C 191.867 22.800,191.600 22.889,191.600 23.600 C 191.600 24.133,191.333 24.400,190.800 24.400 C 190.267 24.400,190.000 24.667,190.000 25.200 C 190.000 25.733,189.733 26.000,189.200 26.000 C 188.667 26.000,188.400 26.267,188.400 26.800 C 188.400 27.333,188.133 27.600,187.600 27.600 C 187.067 27.600,186.800 27.867,186.800 28.400 C 186.800 28.933,186.533 29.200,186.000 29.200 C 185.358 29.200,185.200 29.467,185.200 30.553 C 185.200 31.570,185.001 31.959,184.400 32.116 C 183.787 32.276,183.600 32.662,183.600 33.763 C 183.600 34.784,183.423 35.200,182.990 35.200 C 182.655 35.200,182.209 35.650,182.000 36.200 C 181.791 36.750,181.455 37.200,181.254 37.200 C 181.053 37.200,180.774 37.813,180.634 38.561 C 180.493 39.310,180.113 40.024,179.789 40.149 C 179.424 40.289,179.200 40.912,179.200 41.787 C 179.200 42.933,179.049 43.200,178.400 43.200 C 177.752 43.200,177.600 43.467,177.600 44.600 C 177.600 45.733,177.448 46.000,176.800 46.000 C 176.219 46.000,176.000 46.267,176.000 46.973 C 176.000 47.591,175.711 48.038,175.208 48.197 C 174.773 48.336,174.434 48.573,174.455 48.724 C 174.620 49.882,174.282 50.784,173.600 51.000 C 173.012 51.187,172.800 51.605,172.800 52.580 C 172.800 53.570,172.597 53.960,172.000 54.116 C 171.387 54.276,171.200 54.662,171.200 55.763 C 171.200 56.784,171.023 57.200,170.590 57.200 C 170.255 57.200,169.805 57.661,169.591 58.224 C 169.377 58.787,169.021 59.137,168.801 59.000 C 168.580 58.864,168.378 58.943,168.350 59.176 C 168.322 59.409,168.255 59.780,168.200 60.000 C 168.145 60.220,168.078 60.739,168.050 61.153 C 168.022 61.568,167.604 62.010,167.117 62.137 C 166.632 62.264,166.343 62.477,166.476 62.609 C 166.904 63.037,166.161 65.000,165.571 65.000 C 164.998 65.000,164.942 65.154,164.850 67.000 C 164.820 67.608,164.561 68.000,164.190 68.000 C 163.833 68.000,163.481 68.495,163.341 69.194 C 163.210 69.850,162.963 70.301,162.793 70.196 C 162.426 69.969,162.000 70.955,162.000 72.033 C 162.000 72.533,161.722 72.800,161.200 72.800 C 160.533 72.800,160.400 73.067,160.400 74.400 C 160.400 75.733,160.267 76.000,159.600 76.000 C 158.933 76.000,158.800 76.267,158.800 77.600 C 158.800 78.933,158.667 79.200,158.000 79.200 C 157.413 79.200,157.200 79.467,157.200 80.200 C 157.200 80.783,156.993 81.158,156.704 81.100 C 156.431 81.045,156.034 81.585,155.821 82.300 C 155.609 83.015,155.221 83.600,154.960 83.600 C 154.398 83.600,154.000 84.506,154.000 85.786 C 154.000 86.370,153.708 86.783,153.200 86.916 C 152.587 87.076,152.400 87.462,152.400 88.563 C 152.400 89.595,152.225 90.000,151.779 90.000 C 151.438 90.000,150.970 90.540,150.740 91.200 C 150.510 91.860,150.159 92.400,149.961 92.400 C 149.762 92.400,149.629 92.535,149.664 92.700 C 149.774 93.221,149.073 94.582,148.458 95.043 C 148.133 95.287,147.802 95.908,147.724 96.423 C 147.645 96.937,147.225 97.690,146.790 98.095 C 146.356 98.500,146.000 99.274,146.000 99.816 C 146.000 100.404,145.769 100.800,145.427 100.800 C 145.098 100.800,144.799 101.270,144.727 101.900 C 144.651 102.557,144.387 102.956,144.070 102.890 C 143.779 102.830,143.655 102.965,143.794 103.190 C 143.933 103.416,143.857 103.600,143.624 103.600 C 143.391 103.600,143.200 104.050,143.200 104.600 C 143.200 105.333,142.987 105.600,142.400 105.600 C 141.733 105.600,141.600 105.867,141.600 107.200 C 141.600 108.533,141.467 108.800,140.800 108.800 C 140.133 108.800,140.000 109.067,140.000 110.400 C 140.000 111.733,139.867 112.000,139.200 112.000 C 138.613 112.000,138.400 112.267,138.400 113.000 C 138.400 113.587,138.193 113.959,137.900 113.900 C 137.625 113.845,137.445 114.025,137.500 114.300 C 137.555 114.575,137.420 114.800,137.200 114.800 C 136.980 114.800,136.800 115.120,136.800 115.511 C 136.800 115.902,136.440 116.530,136.000 116.907 C 135.560 117.284,135.200 118.023,135.200 118.549 C 135.200 119.170,134.919 119.580,134.400 119.716 C 133.787 119.876,133.600 120.262,133.600 121.363 C 133.600 122.329,133.416 122.800,133.039 122.800 C 132.731 122.800,132.290 123.340,132.060 124.000 C 131.830 124.660,131.452 125.200,131.221 125.200 C 130.989 125.200,130.829 125.335,130.864 125.500 C 130.965 125.980,130.295 127.364,129.750 127.800 C 129.475 128.020,129.194 128.740,129.125 129.400 C 129.047 130.144,128.772 130.600,128.400 130.600 C 127.999 130.600,127.760 131.083,127.678 132.059 C 127.591 133.107,127.337 133.575,126.778 133.722 C 126.189 133.876,126.000 134.275,126.000 135.363 C 126.000 136.411,125.828 136.800,125.363 136.800 C 125.012 136.800,124.635 137.143,124.526 137.563 C 124.416 137.983,123.983 138.416,123.563 138.526 C 122.997 138.674,122.800 139.084,122.800 140.116 C 122.800 141.170,122.606 141.557,122.000 141.716 C 121.394 141.875,121.200 142.262,121.200 143.316 C 121.200 144.370,121.006 144.757,120.400 144.916 C 119.822 145.067,119.600 145.462,119.600 146.336 C 119.600 147.195,119.368 147.620,118.800 147.800 C 118.360 147.940,118.000 148.383,118.000 148.784 C 118.000 149.186,117.747 149.612,117.438 149.730 C 117.128 149.849,116.754 150.498,116.606 151.173 C 116.458 151.848,116.081 152.400,115.768 152.400 C 115.456 152.400,115.178 152.580,115.150 152.800 C 115.123 153.020,115.055 153.380,115.000 153.600 C 114.945 153.820,114.878 154.339,114.850 154.753 C 114.822 155.168,114.440 155.601,114.000 155.716 C 113.387 155.876,113.200 156.262,113.200 157.363 C 113.200 158.343,113.018 158.800,112.628 158.800 C 112.313 158.800,111.998 159.205,111.928 159.700 C 111.858 160.195,111.530 160.600,111.200 160.600 C 110.619 160.600,110.557 160.745,110.450 162.353 C 110.422 162.768,110.040 163.201,109.600 163.316 C 108.994 163.475,108.800 163.862,108.800 164.916 C 108.800 165.970,108.606 166.357,108.000 166.516 C 107.394 166.675,107.200 167.062,107.200 168.116 C 107.200 169.170,107.006 169.557,106.400 169.716 C 105.913 169.843,105.600 170.262,105.600 170.786 C 105.600 171.260,105.465 171.565,105.300 171.466 C 104.850 171.193,104.218 172.072,104.059 173.191 C 103.982 173.736,103.577 174.421,103.159 174.713 C 102.718 175.023,102.400 175.719,102.400 176.376 C 102.400 177.170,102.162 177.569,101.600 177.716 C 101.026 177.866,100.800 178.262,100.800 179.116 C 100.800 179.970,100.574 180.366,100.000 180.516 C 99.547 180.634,99.200 181.062,99.200 181.501 C 99.200 181.927,98.850 182.593,98.422 182.980 C 97.995 183.367,97.590 184.032,97.522 184.458 C 97.455 184.883,97.240 185.209,97.045 185.182 C 96.494 185.104,96.013 186.086,96.006 187.300 C 96.002 188.008,95.786 188.400,95.400 188.400 C 94.967 188.400,94.800 188.844,94.800 190.000 C 94.800 191.314,94.662 191.600,94.028 191.600 C 93.532 191.600,93.210 191.922,93.128 192.500 C 93.058 192.995,92.730 193.400,92.400 193.400 C 91.817 193.400,91.755 193.546,91.650 195.173 C 91.623 195.598,91.250 196.057,90.823 196.193 C 90.273 196.367,90.010 196.872,89.923 197.920 C 89.840 198.914,89.603 199.400,89.200 199.400 C 88.799 199.400,88.560 199.883,88.478 200.859 C 88.391 201.907,88.137 202.375,87.578 202.522 C 87.145 202.635,86.800 203.069,86.800 203.501 C 86.800 203.927,86.440 204.602,86.000 205.000 C 85.560 205.398,85.200 206.035,85.200 206.415 C 85.200 206.796,84.835 207.202,84.389 207.319 C 83.942 207.436,83.604 207.682,83.636 207.866 C 83.872 209.208,83.514 210.329,82.789 210.519 C 82.342 210.636,82.004 210.882,82.036 211.066 C 82.239 212.221,81.901 213.133,81.200 213.316 C 80.747 213.434,80.378 213.888,80.350 214.363 C 80.268 215.729,80.217 215.917,79.836 216.267 C 79.620 216.464,79.603 216.356,79.795 216.000 C 80.018 215.584,79.987 215.523,79.693 215.800 C 79.459 216.020,79.207 216.612,79.134 217.116 C 79.060 217.620,78.840 218.009,78.645 217.982 C 78.102 217.905,77.613 218.881,77.606 220.053 C 77.602 220.767,77.342 221.174,76.800 221.316 C 76.194 221.475,76.000 221.862,76.000 222.916 C 76.000 223.970,75.806 224.357,75.200 224.516 C 74.611 224.670,74.400 225.062,74.400 226.000 C 74.400 226.938,74.189 227.330,73.600 227.484 C 73.157 227.600,72.800 228.030,72.800 228.447 C 72.800 228.861,72.549 229.200,72.243 229.200 C 71.598 229.200,71.200 230.052,71.200 231.433 C 71.200 231.965,71.065 232.379,70.900 232.353 C 69.908 232.196,69.600 232.528,69.600 233.753 C 69.600 234.770,69.401 235.159,68.800 235.316 C 68.321 235.441,68.000 235.862,68.000 236.363 C 68.000 236.823,67.640 237.560,67.200 238.000 C 66.760 238.440,66.400 239.076,66.400 239.413 C 66.400 239.749,66.135 240.127,65.811 240.251 C 65.487 240.376,65.107 241.090,64.966 241.839 C 64.821 242.611,64.471 243.200,64.155 243.200 C 63.850 243.200,63.587 243.335,63.570 243.500 C 63.433 244.881,63.102 245.863,62.659 246.200 C 62.369 246.420,62.007 247.102,61.855 247.716 C 61.684 248.401,61.402 248.725,61.126 248.555 C 60.862 248.391,60.787 248.455,60.945 248.711 C 61.092 248.949,61.030 249.258,60.807 249.396 C 60.583 249.534,60.400 249.997,60.400 250.424 C 60.400 250.851,60.265 251.179,60.100 251.153 C 59.099 250.995,58.800 251.328,58.800 252.600 C 58.800 253.733,58.648 254.000,58.000 254.000 C 57.333 254.000,57.200 254.267,57.200 255.600 C 57.200 256.933,57.067 257.200,56.400 257.200 C 55.748 257.200,55.600 257.467,55.600 258.637 C 55.600 259.738,55.413 260.124,54.800 260.284 C 54.357 260.400,54.000 260.830,54.000 261.247 C 54.000 261.661,53.749 262.000,53.443 262.000 C 52.836 262.000,52.400 262.839,52.400 264.006 C 52.400 264.413,52.044 264.859,51.608 264.997 C 51.173 265.136,50.834 265.373,50.855 265.524 C 51.027 266.729,50.712 268.000,50.243 268.000 C 49.605 268.000,49.200 268.849,49.200 270.186 C 49.200 270.770,48.908 271.183,48.400 271.316 C 47.921 271.441,47.600 271.862,47.600 272.363 C 47.600 272.823,47.375 273.155,47.100 273.100 C 46.825 273.045,46.625 273.315,46.656 273.700 C 46.686 274.085,46.551 274.400,46.356 274.400 C 46.160 274.400,46.000 274.760,46.000 275.200 C 46.000 275.644,45.733 276.000,45.400 276.000 C 44.967 276.000,44.800 276.444,44.800 277.600 C 44.800 278.933,44.667 279.200,44.000 279.200 C 43.358 279.200,43.200 279.467,43.200 280.553 C 43.200 281.550,42.998 281.959,42.434 282.107 C 42.013 282.217,41.603 282.733,41.524 283.254 C 41.446 283.774,41.147 284.151,40.861 284.090 C 40.575 284.030,40.455 284.165,40.594 284.390 C 40.733 284.616,40.669 284.800,40.450 284.800 C 40.232 284.800,39.996 285.295,39.927 285.900 C 39.851 286.555,39.557 287.000,39.200 287.000 C 38.795 287.000,38.560 287.489,38.476 288.500 C 38.400 289.421,38.146 290.000,37.819 290.000 C 37.196 290.000,36.800 290.868,36.800 292.233 C 36.800 292.933,36.579 293.200,36.000 293.200 C 35.467 293.200,35.200 293.467,35.200 294.000 C 35.200 294.440,34.840 295.160,34.400 295.600 C 33.960 296.040,33.600 296.760,33.600 297.200 C 33.600 297.640,33.348 298.000,33.040 298.000 C 32.728 298.000,32.329 298.632,32.140 299.424 C 31.953 300.208,31.640 300.822,31.445 300.790 C 30.897 300.700,30.413 301.683,30.406 302.900 C 30.402 303.564,30.182 304.000,29.850 304.000 C 29.548 304.000,29.192 304.541,29.059 305.203 C 28.925 305.876,28.594 306.361,28.309 306.303 C 28.010 306.242,27.744 306.689,27.665 307.387 C 27.591 308.040,27.186 308.815,26.765 309.109 C 26.306 309.431,26.000 310.117,26.000 310.823 C 26.000 311.733,25.819 312.000,25.200 312.000 C 24.533 312.000,24.400 312.267,24.400 313.600 C 24.400 314.611,24.228 315.163,23.933 315.100 C 23.676 315.045,23.255 315.404,22.997 315.897 C 22.740 316.391,22.230 317.125,21.864 317.529 C 21.499 317.933,21.200 318.536,21.200 318.870 C 21.200 319.203,20.840 319.802,20.400 320.200 C 19.960 320.598,19.600 321.325,19.600 321.815 C 19.600 322.374,19.298 322.786,18.789 322.919 C 18.342 323.036,18.004 323.282,18.036 323.466 C 18.253 324.699,17.926 326.000,17.400 326.000 C 17.070 326.000,16.786 326.135,16.769 326.300 C 16.636 327.608,16.321 328.258,15.524 328.872 C 15.016 329.262,14.741 329.586,14.914 329.591 C 15.087 329.596,15.033 329.965,14.794 330.411 C 14.555 330.857,14.184 331.114,13.970 330.981 C 13.756 330.849,13.609 330.889,13.644 331.070 C 13.777 331.766,13.087 333.978,12.793 333.796 C 12.406 333.556,12.000 334.574,12.000 335.786 C 12.000 336.345,11.710 336.783,11.261 336.900 C 10.818 337.016,10.419 337.606,10.265 338.373 C 10.120 339.099,9.832 339.543,9.600 339.400 C 9.369 339.257,9.083 339.687,8.942 340.388 C 8.806 341.070,8.382 341.847,8.001 342.114 C 7.260 342.633,7.200 342.773,7.200 343.973 C 7.200 344.398,6.840 344.860,6.400 345.000 C 5.832 345.180,5.600 345.605,5.600 346.464 C 5.600 347.338,5.378 347.733,4.800 347.884 C 4.214 348.037,4.000 348.430,4.000 349.350 C 4.000 350.174,3.724 350.780,3.200 351.107 C 2.760 351.382,2.400 351.965,2.400 352.403 C 2.400 352.842,2.175 353.155,1.900 353.100 C 1.625 353.045,1.445 353.225,1.500 353.500 C 1.555 353.775,1.420 354.000,1.200 354.000 C 0.980 354.000,0.800 354.360,0.800 354.800 C 0.800 355.240,0.620 355.600,0.400 355.600 C 0.147 355.600,0.000 358.467,0.000 363.400 C 0.000 368.333,0.147 371.200,0.400 371.200 C 0.620 371.200,0.800 371.847,0.800 372.637 C 0.800 373.738,0.987 374.124,1.600 374.284 C 2.040 374.399,2.400 374.742,2.400 375.047 C 2.400 375.351,2.760 375.600,3.200 375.600 C 3.733 375.600,4.000 375.867,4.000 376.400 C 4.000 376.933,4.267 377.200,4.800 377.200 C 5.333 377.200,5.600 377.467,5.600 378.000 C 5.600 378.683,5.867 378.800,7.418 378.800 C 8.927 378.800,9.215 378.919,9.118 379.500 C 9.006 380.166,18.392 380.205,200.900 380.301 C 392.665 380.402,392.800 380.402,392.800 379.601 C 392.800 378.933,393.066 378.800,394.400 378.800 C 395.733 378.800,396.000 378.667,396.000 378.000 C 396.000 377.467,396.267 377.200,396.800 377.200 C 397.333 377.200,397.600 376.933,397.600 376.400 C 397.600 375.867,397.867 375.600,398.400 375.600 C 398.844 375.600,399.200 375.333,399.200 375.000 C 399.200 374.670,399.380 374.400,399.600 374.400 C 399.857 374.400,400.000 370.467,400.000 363.400 C 400.000 356.333,399.857 352.400,399.600 352.400 C 399.380 352.400,399.194 352.085,399.187 351.700 C 399.172 350.835,398.215 349.518,397.860 349.873 C 397.717 350.016,397.600 349.688,397.600 349.143 C 397.600 348.599,397.317 347.804,396.970 347.376 C 396.624 346.949,396.472 346.853,396.632 347.162 C 396.824 347.531,396.765 347.626,396.462 347.438 C 396.208 347.281,396.000 346.623,396.000 345.976 C 396.000 345.067,395.819 344.800,395.200 344.800 C 394.581 344.800,394.400 344.533,394.400 343.623 C 394.400 342.920,394.094 342.231,393.641 341.913 C 393.223 341.621,392.818 340.936,392.741 340.391 C 392.663 339.846,392.330 339.079,392.000 338.687 C 391.670 338.295,391.384 337.845,391.365 337.687 C 391.270 336.895,390.674 336.030,390.358 336.226 C 390.161 336.348,390.000 336.075,390.000 335.620 C 390.000 335.165,389.640 334.484,389.200 334.107 C 388.760 333.730,388.400 333.102,388.400 332.711 C 388.400 332.320,388.040 331.640,387.600 331.200 C 387.160 330.760,386.800 330.055,386.800 329.633 C 386.800 328.514,386.369 327.572,385.970 327.818 C 385.780 327.936,385.358 327.395,385.033 326.616 C 384.707 325.837,384.331 325.200,384.197 325.200 C 384.063 325.200,384.082 325.425,384.241 325.700 C 384.408 325.990,384.376 326.060,384.164 325.867 C 383.783 325.517,383.732 325.329,383.650 323.963 C 383.622 323.497,383.255 323.035,382.822 322.922 C 382.263 322.775,382.009 322.307,381.922 321.259 C 381.843 320.318,381.597 319.800,381.229 319.800 C 380.680 319.800,379.882 317.851,380.272 317.462 C 380.375 317.358,380.087 317.154,379.630 317.010 C 379.106 316.843,378.800 316.406,378.800 315.822 C 378.800 315.314,378.495 314.651,378.123 314.349 C 377.547 313.881,377.497 313.883,377.785 314.362 C 378.015 314.743,377.975 314.832,377.662 314.638 C 377.408 314.481,377.200 313.823,377.200 313.176 C 377.200 312.267,377.019 312.000,376.400 312.000 C 375.751 312.000,375.600 311.733,375.600 310.587 C 375.600 309.728,375.375 309.088,375.024 308.954 C 374.708 308.833,374.330 308.190,374.184 307.526 C 374.038 306.862,373.570 305.970,373.145 305.545 C 372.719 305.119,372.478 304.597,372.609 304.385 C 372.740 304.173,372.657 304.000,372.424 304.000 C 372.191 304.000,372.045 303.775,372.100 303.500 C 372.155 303.225,371.975 303.045,371.700 303.100 C 371.425 303.155,371.200 302.850,371.200 302.423 C 371.200 301.995,370.845 301.397,370.412 301.093 C 369.961 300.778,369.582 299.997,369.527 299.271 C 369.465 298.459,369.171 297.918,368.715 297.773 C 368.322 297.648,368.000 297.213,368.000 296.806 C 368.000 295.639,367.564 294.800,366.957 294.800 C 366.630 294.800,366.400 294.388,366.400 293.800 C 366.400 293.250,366.209 292.800,365.976 292.800 C 365.743 292.800,365.665 292.619,365.802 292.397 C 365.939 292.176,365.769 291.886,365.425 291.754 C 365.081 291.622,364.800 291.174,364.800 290.757 C 364.800 290.267,364.518 290.000,364.000 290.000 C 363.355 290.000,363.200 289.733,363.200 288.627 C 363.200 287.605,362.995 287.189,362.400 287.000 C 361.864 286.830,361.598 286.391,361.594 285.673 C 361.587 284.481,361.100 283.502,360.555 283.587 C 360.360 283.617,360.139 283.346,360.064 282.985 C 359.989 282.623,359.584 281.984,359.164 281.564 C 358.744 281.144,358.400 280.440,358.400 280.000 C 358.400 279.556,358.133 279.200,357.800 279.200 C 357.274 279.200,356.947 277.899,357.164 276.666 C 357.196 276.482,356.878 276.241,356.457 276.131 C 355.930 275.993,355.613 275.441,355.441 274.365 C 355.280 273.358,354.978 272.800,354.595 272.800 C 354.268 272.800,354.000 272.468,354.000 272.062 C 354.000 271.656,353.640 270.998,353.200 270.600 C 352.760 270.202,352.400 269.527,352.400 269.101 C 352.400 268.662,352.053 268.234,351.600 268.116 C 351.006 267.961,350.800 267.570,350.800 266.600 C 350.800 265.630,350.594 265.239,350.000 265.084 C 349.387 264.924,349.200 264.538,349.200 263.437 C 349.200 262.267,349.052 262.000,348.400 262.000 C 347.883 262.000,347.582 261.717,347.550 261.200 C 347.523 260.760,347.455 260.220,347.400 260.000 C 347.345 259.780,347.278 259.420,347.250 259.200 C 347.223 258.980,346.979 258.845,346.709 258.900 C 346.440 258.955,346.157 258.595,346.082 258.100 C 345.994 257.525,345.666 257.200,345.172 257.200 C 344.538 257.200,344.400 256.914,344.400 255.600 C 344.400 254.267,344.267 254.000,343.600 254.000 C 342.957 254.000,342.800 253.733,342.800 252.643 C 342.800 251.861,342.567 251.196,342.251 251.075 C 341.948 250.959,341.580 250.219,341.432 249.432 C 341.270 248.569,340.933 248.000,340.582 248.000 C 340.262 248.000,340.000 247.646,340.000 247.214 C 340.000 246.782,339.640 246.235,339.200 246.000 C 338.720 245.743,338.400 245.162,338.400 244.548 C 338.400 243.862,338.137 243.456,337.600 243.316 C 337.092 243.183,336.800 242.770,336.800 242.186 C 336.800 240.849,336.395 240.000,335.757 240.000 C 335.451 240.000,335.178 239.640,335.150 239.200 C 335.049 237.588,334.549 236.661,333.972 237.017 C 333.768 237.144,333.600 236.830,333.600 236.320 C 333.600 235.810,333.240 235.168,332.800 234.893 C 332.335 234.603,332.000 233.960,332.000 233.359 C 332.000 232.662,331.740 232.257,331.200 232.116 C 330.626 231.966,330.400 231.570,330.400 230.716 C 330.400 229.862,330.174 229.466,329.600 229.316 C 328.973 229.152,328.800 228.770,328.800 227.553 C 328.800 226.267,328.663 226.000,328.000 226.000 C 327.483 226.000,327.200 225.733,327.200 225.247 C 327.200 224.830,326.843 224.400,326.400 224.284 C 325.787 224.124,325.600 223.738,325.600 222.637 C 325.600 221.626,325.422 221.200,325.000 221.200 C 324.670 221.200,324.378 220.840,324.350 220.400 C 324.322 219.960,324.255 219.420,324.200 219.200 C 324.145 218.980,324.078 218.620,324.050 218.400 C 324.023 218.180,323.730 218.000,323.400 218.000 C 323.067 218.000,322.800 217.644,322.800 217.200 C 322.800 216.760,322.445 216.045,322.010 215.610 C 321.576 215.176,321.104 214.355,320.961 213.786 C 320.796 213.129,320.501 212.829,320.151 212.964 C 319.757 213.115,319.600 212.826,319.600 211.950 C 319.600 211.062,319.380 210.668,318.800 210.516 C 318.194 210.357,318.000 209.970,318.000 208.916 C 318.000 207.862,317.806 207.475,317.200 207.316 C 316.594 207.157,316.400 206.770,316.400 205.716 C 316.400 204.662,316.206 204.275,315.600 204.116 C 315.160 204.001,314.800 203.596,314.800 203.215 C 314.800 202.835,314.440 202.198,314.000 201.800 C 313.560 201.402,313.200 200.756,313.200 200.365 C 313.200 199.974,312.840 199.540,312.400 199.400 C 311.799 199.209,311.600 198.795,311.600 197.736 C 311.600 196.662,311.409 196.275,310.800 196.116 C 310.199 195.959,310.000 195.570,310.000 194.553 C 310.000 193.467,309.842 193.200,309.200 193.200 C 308.683 193.200,308.382 192.917,308.350 192.400 C 308.259 190.950,308.204 190.774,307.754 190.485 C 307.509 190.328,307.181 189.795,307.027 189.300 C 306.872 188.805,306.488 188.400,306.173 188.400 C 305.687 188.400,305.370 187.151,305.545 185.924 C 305.566 185.773,305.227 185.536,304.792 185.397 C 304.103 185.179,303.752 184.073,303.945 182.724 C 303.966 182.573,303.627 182.336,303.192 182.197 C 302.756 182.059,302.377 181.688,302.350 181.373 C 302.322 181.058,302.255 180.620,302.200 180.400 C 302.145 180.180,302.078 179.820,302.050 179.600 C 302.022 179.380,301.779 179.245,301.509 179.300 C 301.240 179.355,300.957 178.995,300.882 178.500 C 300.794 177.925,300.466 177.600,299.972 177.600 C 299.353 177.600,299.200 177.316,299.200 176.163 C 299.200 175.062,299.013 174.676,298.400 174.516 C 297.794 174.357,297.600 173.970,297.600 172.916 C 297.600 171.862,297.406 171.475,296.800 171.316 C 296.302 171.186,296.000 170.770,296.000 170.215 C 296.000 169.725,295.640 168.998,295.200 168.600 C 294.760 168.202,294.400 167.544,294.400 167.138 C 294.400 166.667,294.111 166.400,293.600 166.400 C 292.970 166.400,292.800 166.133,292.800 165.144 C 292.800 164.453,292.533 163.688,292.207 163.444 C 291.708 163.070,291.371 162.122,291.230 160.700 C 291.213 160.535,290.948 160.400,290.640 160.400 C 290.325 160.400,289.916 159.742,289.707 158.900 C 289.502 158.075,289.124 157.445,288.867 157.500 C 288.610 157.555,288.400 157.223,288.400 156.763 C 288.400 156.262,288.079 155.841,287.600 155.716 C 286.994 155.557,286.800 155.170,286.800 154.116 C 286.800 153.062,286.606 152.675,286.000 152.516 C 285.399 152.359,285.200 151.970,285.200 150.953 C 285.200 149.728,284.892 149.396,283.900 149.553 C 283.735 149.579,283.600 149.062,283.600 148.403 C 283.600 147.640,283.310 147.026,282.800 146.707 C 282.360 146.432,282.000 145.891,282.000 145.504 C 282.000 145.067,281.697 144.800,281.200 144.800 C 280.533 144.800,280.400 144.533,280.400 143.200 C 280.400 141.867,280.267 141.600,279.600 141.600 C 278.948 141.600,278.800 141.333,278.800 140.163 C 278.800 139.062,278.613 138.676,278.000 138.516 C 277.294 138.331,276.941 137.241,277.153 135.900 C 277.197 135.618,276.575 135.446,275.900 135.553 C 275.735 135.579,275.600 135.150,275.600 134.600 C 275.600 133.978,275.373 133.600,275.000 133.600 C 274.578 133.600,274.400 133.174,274.400 132.163 C 274.400 131.062,274.213 130.676,273.600 130.516 C 272.899 130.333,272.561 129.421,272.764 128.266 C 272.796 128.082,272.478 127.841,272.057 127.731 C 271.528 127.593,271.213 127.040,271.038 125.946 C 270.896 125.062,270.611 124.470,270.392 124.605 C 270.175 124.739,269.823 124.387,269.609 123.824 C 269.395 123.261,268.945 122.800,268.610 122.800 C 268.177 122.800,268.000 122.384,268.000 121.363 C 268.000 120.275,267.811 119.876,267.222 119.722 C 266.663 119.575,266.409 119.107,266.322 118.059 C 266.240 117.083,266.001 116.600,265.600 116.600 C 265.199 116.600,264.960 116.117,264.878 115.141 C 264.791 114.093,264.537 113.625,263.978 113.478 C 263.520 113.359,263.200 112.931,263.200 112.437 C 263.200 111.977,263.020 111.600,262.800 111.600 C 262.580 111.600,262.445 111.375,262.500 111.100 C 262.555 110.825,262.375 110.645,262.100 110.700 C 261.807 110.759,261.600 110.387,261.600 109.800 C 261.600 109.067,261.387 108.800,260.800 108.800 C 260.133 108.800,260.000 108.533,260.000 107.200 C 260.000 105.867,259.867 105.600,259.200 105.600 C 258.557 105.600,258.400 105.333,258.400 104.243 C 258.400 103.405,258.170 102.797,257.800 102.655 C 257.470 102.529,257.200 102.059,257.200 101.613 C 257.200 101.166,257.020 100.800,256.800 100.800 C 256.580 100.800,256.445 100.575,256.500 100.300 C 256.555 100.025,256.375 99.845,256.100 99.900 C 255.803 99.959,255.600 99.579,255.600 98.963 C 255.600 98.262,255.341 97.857,254.800 97.716 C 254.199 97.559,254.000 97.170,254.000 96.153 C 254.000 95.067,253.842 94.800,253.200 94.800 C 252.548 94.800,252.400 94.533,252.400 93.363 C 252.400 92.262,252.213 91.876,251.600 91.716 C 251.160 91.601,250.800 91.178,250.800 90.777 C 250.800 90.376,250.602 89.925,250.359 89.775 C 250.117 89.625,249.664 88.894,249.354 88.151 C 249.043 87.408,248.522 86.800,248.195 86.800 C 247.768 86.800,247.600 86.349,247.600 85.200 C 247.600 83.867,247.467 83.600,246.800 83.600 C 246.181 83.600,246.000 83.333,246.000 82.423 C 246.000 81.718,245.694 81.031,245.238 80.712 C 244.819 80.418,244.414 79.823,244.338 79.389 C 244.170 78.430,243.510 77.617,243.100 77.866 C 242.935 77.965,242.800 77.587,242.800 77.024 C 242.800 76.380,242.577 76.000,242.200 76.000 C 241.778 76.000,241.600 75.574,241.600 74.563 C 241.600 73.462,241.413 73.076,240.800 72.916 C 240.281 72.780,240.000 72.370,240.000 71.749 C 240.000 71.223,239.640 70.484,239.200 70.107 C 238.760 69.730,238.400 69.102,238.400 68.711 C 238.400 68.320,238.220 68.000,238.000 68.000 C 237.780 68.000,237.645 67.775,237.700 67.500 C 237.755 67.225,237.575 67.045,237.300 67.100 C 237.010 67.158,236.800 66.792,236.800 66.227 C 236.800 65.605,236.511 65.162,236.000 65.000 C 235.432 64.820,235.200 64.395,235.200 63.536 C 235.200 62.662,234.978 62.267,234.400 62.116 C 233.892 61.983,233.600 61.570,233.600 60.986 C 233.600 59.649,233.195 58.800,232.557 58.800 C 232.251 58.800,232.000 58.440,232.000 58.000 C 232.000 57.560,231.640 56.840,231.200 56.400 C 230.760 55.960,230.400 55.240,230.400 54.800 C 230.400 54.267,230.133 54.000,229.600 54.000 C 228.948 54.000,228.800 53.733,228.800 52.563 C 228.800 51.462,228.613 51.076,228.000 50.916 C 227.394 50.757,227.200 50.370,227.200 49.316 C 227.200 48.262,227.006 47.875,226.400 47.716 C 225.898 47.585,225.600 47.170,225.600 46.602 C 225.600 46.105,225.330 45.474,225.000 45.200 C 224.670 44.926,224.400 44.364,224.400 43.951 C 224.400 43.467,224.116 43.200,223.600 43.200 C 223.021 43.200,222.800 42.933,222.800 42.233 C 222.800 40.852,222.402 40.000,221.757 40.000 C 221.451 40.000,221.178 39.640,221.150 39.200 C 221.123 38.760,221.055 38.220,221.000 38.000 C 220.945 37.780,220.878 37.420,220.850 37.200 C 220.822 36.980,220.530 36.800,220.200 36.800 C 219.835 36.800,219.600 36.428,219.600 35.849 C 219.600 35.326,219.311 34.658,218.958 34.365 C 218.605 34.073,218.160 33.420,217.968 32.916 C 217.777 32.412,217.345 32.000,217.010 32.000 C 216.580 32.000,216.400 31.588,216.400 30.600 C 216.400 29.467,216.248 29.200,215.600 29.200 C 215.067 29.200,214.800 28.933,214.800 28.400 C 214.800 27.867,214.533 27.600,214.000 27.600 C 213.467 27.600,213.200 27.333,213.200 26.800 C 213.200 26.267,212.933 26.000,212.400 26.000 C 211.867 26.000,211.600 25.733,211.600 25.200 C 211.600 24.683,211.333 24.400,210.847 24.400 C 210.430 24.400,210.000 24.043,209.884 23.600 C 209.709 22.930,209.338 22.800,207.600 22.800 C 205.862 22.800,205.491 22.670,205.316 22.000 C 205.111 21.217,198.548 20.800,196.900 21.465 M224.400 201.000 L 224.400 262.000 200.800 262.000 L 177.200 262.000 177.200 201.000 L 177.200 140.000 200.800 140.000 L 224.400 140.000 224.400 201.000 M224.400 314.800 L 224.400 333.600 200.800 333.600 L 177.200 333.600 177.200 314.800 L 177.200 296.000 200.800 296.000 L 224.400 296.000 224.400 314.800 " stroke="none" fill="#fecc00" fill-rule="evenodd"></path></g></svg>