<svg id="svg" version="1.1" width="400" height="400" viewBox="0 0 400 400" xmlns="http://www.w3.org/2000/svg" xmlns:xlink="http://www.w3.org/1999/xlink" ><g id="svgg"><path id="path0" d="M27.680 0.700 C 27.908 1.854,35.600 1.556,35.600 0.392 C 35.600 0.162,33.938 0.000,31.571 0.000 C 27.947 0.000,27.555 0.071,27.680 0.700 M40.000 0.392 C 40.000 1.025,41.975 1.400,45.300 1.400 C 47.005 1.400,48.400 1.522,48.400 1.671 C 48.400 2.408,49.816 3.200,51.132 3.200 C 52.196 3.200,52.753 3.433,53.130 4.037 C 53.525 4.669,53.899 4.812,54.660 4.621 C 55.461 4.420,55.711 4.539,55.885 5.204 C 56.021 5.723,56.540 6.128,57.252 6.270 C 57.883 6.397,58.400 6.645,58.400 6.823 C 58.400 7.001,58.759 7.260,59.197 7.399 C 59.636 7.538,91.091 38.707,129.097 76.663 C 204.324 151.790,200.384 147.968,201.699 147.096 C 202.195 146.768,233.470 115.661,271.200 77.970 C 334.531 14.705,341.760 7.600,342.798 7.600 C 342.997 7.600,343.304 7.350,343.480 7.045 C 343.656 6.739,344.155 6.423,344.590 6.341 C 345.024 6.260,345.564 5.835,345.790 5.396 C 346.052 4.888,346.518 4.645,347.081 4.725 C 347.633 4.804,348.154 4.543,348.477 4.025 C 348.846 3.435,349.411 3.200,350.464 3.200 C 352.393 3.200,353.200 2.863,353.200 2.057 C 353.200 1.501,353.705 1.400,356.500 1.400 C 360.008 1.400,362.000 1.035,362.000 0.392 C 362.000 0.158,360.071 0.000,357.200 0.000 C 354.267 0.000,352.400 0.156,352.400 0.400 C 352.400 0.620,351.502 0.800,350.403 0.800 C 348.840 0.800,348.298 0.974,347.907 1.600 C 347.632 2.040,347.106 2.400,346.736 2.400 C 345.634 2.400,344.800 2.849,344.800 3.443 C 344.800 3.816,344.325 4.000,343.363 4.000 C 342.262 4.000,341.876 4.187,341.716 4.800 C 341.601 5.240,341.213 5.600,340.853 5.600 C 340.494 5.600,339.412 6.320,338.449 7.200 C 337.487 8.080,336.464 8.800,336.176 8.800 C 335.889 8.800,335.540 9.160,335.400 9.600 C 335.260 10.040,334.900 10.400,334.600 10.400 C 334.300 10.400,333.940 10.760,333.800 11.200 C 333.660 11.640,333.309 12.000,333.020 12.000 C 332.730 12.000,332.399 12.360,332.284 12.800 C 332.169 13.240,331.788 13.600,331.437 13.600 C 331.067 13.600,330.800 13.935,330.800 14.400 C 330.800 14.933,330.533 15.200,330.000 15.200 C 329.467 15.200,329.200 15.467,329.200 16.000 C 329.200 16.533,328.933 16.800,328.400 16.800 C 327.960 16.800,327.600 17.058,327.600 17.373 C 327.600 17.688,327.240 18.060,326.800 18.200 C 326.360 18.340,326.000 18.700,326.000 19.000 C 326.000 19.300,325.640 19.660,325.200 19.800 C 324.760 19.940,324.400 20.291,324.400 20.580 C 324.400 20.870,324.040 21.201,323.600 21.316 C 323.160 21.431,322.800 21.791,322.800 22.116 C 322.800 22.441,322.440 22.801,322.000 22.916 C 321.560 23.031,321.200 23.412,321.200 23.763 C 321.200 24.113,320.942 24.400,320.627 24.400 C 320.312 24.400,319.946 24.741,319.814 25.157 C 319.682 25.573,319.219 26.006,318.787 26.119 C 318.354 26.233,318.000 26.612,318.000 26.963 C 318.000 27.313,317.730 27.600,317.400 27.600 C 317.070 27.600,316.800 27.887,316.800 28.237 C 316.800 28.588,316.440 28.969,316.000 29.084 C 315.560 29.199,315.200 29.559,315.200 29.884 C 315.200 30.209,314.840 30.569,314.400 30.684 C 313.960 30.799,313.600 31.159,313.600 31.484 C 313.600 31.809,313.240 32.169,312.800 32.284 C 312.360 32.399,312.000 32.721,312.000 33.000 C 312.000 33.279,311.640 33.601,311.200 33.716 C 310.760 33.831,310.400 34.191,310.400 34.516 C 310.400 34.841,310.040 35.201,309.600 35.316 C 309.160 35.431,308.800 35.800,308.800 36.136 C 308.800 36.471,308.440 36.860,308.000 37.000 C 307.560 37.140,307.200 37.491,307.200 37.780 C 307.200 38.070,306.840 38.401,306.400 38.516 C 305.960 38.631,305.600 38.991,305.600 39.316 C 305.600 39.641,305.240 40.001,304.800 40.116 C 304.360 40.231,304.000 40.591,304.000 40.916 C 304.000 41.241,303.640 41.601,303.200 41.716 C 302.760 41.831,302.400 42.191,302.400 42.516 C 302.400 42.841,302.040 43.201,301.600 43.316 C 301.160 43.431,300.800 43.812,300.800 44.163 C 300.800 44.513,300.530 44.800,300.200 44.800 C 299.870 44.800,299.600 45.087,299.600 45.437 C 299.600 45.788,299.240 46.169,298.800 46.284 C 298.360 46.399,298.000 46.759,298.000 47.084 C 298.000 47.409,297.640 47.769,297.200 47.884 C 296.760 47.999,296.400 48.359,296.400 48.684 C 296.400 49.009,296.040 49.369,295.600 49.484 C 295.160 49.599,294.800 49.921,294.800 50.200 C 294.800 50.479,294.440 50.801,294.000 50.916 C 293.560 51.031,293.200 51.391,293.200 51.716 C 293.200 52.041,292.840 52.401,292.400 52.516 C 291.960 52.631,291.600 52.991,291.600 53.316 C 291.600 53.641,291.240 54.001,290.800 54.116 C 290.360 54.231,290.000 54.591,290.000 54.916 C 290.000 55.241,289.640 55.601,289.200 55.716 C 288.760 55.831,288.400 56.191,288.400 56.516 C 288.400 56.841,288.040 57.201,287.600 57.316 C 287.160 57.431,286.800 57.791,286.800 58.116 C 286.800 58.441,286.440 58.801,286.000 58.916 C 285.560 59.031,285.200 59.391,285.200 59.716 C 285.200 60.041,284.840 60.401,284.400 60.516 C 283.960 60.631,283.600 61.012,283.600 61.363 C 283.600 61.713,283.434 62.000,283.232 62.000 C 282.746 62.000,279.366 65.389,279.062 66.182 C 278.932 66.522,278.549 66.800,278.213 66.800 C 277.876 66.800,277.600 67.049,277.600 67.353 C 277.600 67.658,277.240 68.001,276.800 68.116 C 276.360 68.231,276.000 68.591,276.000 68.916 C 276.000 69.241,275.640 69.601,275.200 69.716 C 274.760 69.831,274.400 70.191,274.400 70.516 C 274.400 70.841,274.040 71.201,273.600 71.316 C 273.160 71.431,272.800 71.791,272.800 72.116 C 272.800 72.441,272.440 72.801,272.000 72.916 C 271.560 73.031,271.200 73.391,271.200 73.716 C 271.200 74.041,270.840 74.401,270.400 74.516 C 269.960 74.631,269.600 74.991,269.600 75.316 C 269.600 75.641,269.240 76.001,268.800 76.116 C 268.360 76.231,268.000 76.612,268.000 76.963 C 268.000 77.313,267.742 77.600,267.427 77.600 C 267.112 77.600,266.740 77.960,266.600 78.400 C 266.460 78.840,266.192 79.200,266.005 79.200 C 265.571 79.200,262.000 82.754,262.000 83.185 C 262.000 83.362,261.640 83.601,261.200 83.716 C 260.760 83.831,260.400 84.212,260.400 84.563 C 260.400 84.913,260.126 85.200,259.790 85.200 C 259.455 85.200,259.005 85.661,258.791 86.224 C 258.574 86.793,258.212 87.131,257.974 86.984 C 257.739 86.838,257.452 87.081,257.336 87.523 C 257.221 87.965,256.783 88.416,256.363 88.526 C 255.943 88.635,255.600 88.991,255.600 89.316 C 255.600 89.641,255.240 90.001,254.800 90.116 C 254.360 90.231,254.000 90.591,254.000 90.916 C 254.000 91.241,253.640 91.601,253.200 91.716 C 252.760 91.831,252.400 92.191,252.400 92.516 C 252.400 92.841,252.040 93.201,251.600 93.316 C 251.160 93.431,250.800 93.812,250.800 94.163 C 250.800 94.513,250.637 94.800,250.437 94.800 C 249.964 94.800,244.800 99.964,244.800 100.437 C 244.800 100.637,244.513 100.800,244.163 100.800 C 243.812 100.800,243.431 101.160,243.316 101.600 C 243.201 102.040,242.841 102.400,242.516 102.400 C 242.191 102.400,241.835 102.743,241.726 103.163 C 241.616 103.583,241.183 104.016,240.763 104.126 C 240.343 104.235,240.000 104.612,240.000 104.963 C 240.000 105.313,239.713 105.600,239.363 105.600 C 239.012 105.600,238.631 105.960,238.516 106.400 C 238.401 106.840,238.041 107.200,237.716 107.200 C 237.391 107.200,237.031 107.560,236.916 108.000 C 236.801 108.440,236.441 108.800,236.116 108.800 C 235.791 108.800,235.431 109.160,235.316 109.600 C 235.201 110.040,234.841 110.400,234.516 110.400 C 234.191 110.400,233.831 110.760,233.716 111.200 C 233.601 111.640,233.362 112.000,233.185 112.000 C 232.754 112.000,229.200 115.571,229.200 116.005 C 229.200 116.192,228.840 116.460,228.400 116.600 C 227.960 116.740,227.600 117.112,227.600 117.427 C 227.600 117.742,227.313 118.000,226.963 118.000 C 226.612 118.000,226.231 118.360,226.116 118.800 C 226.001 119.240,225.641 119.600,225.316 119.600 C 224.991 119.600,224.631 119.960,224.516 120.400 C 224.401 120.840,224.041 121.200,223.716 121.200 C 223.391 121.200,223.031 121.560,222.916 122.000 C 222.801 122.440,222.441 122.800,222.116 122.800 C 221.791 122.800,221.431 123.160,221.316 123.600 C 221.201 124.040,220.841 124.400,220.516 124.400 C 220.191 124.400,219.831 124.760,219.716 125.200 C 219.601 125.640,219.241 126.000,218.916 126.000 C 218.591 126.000,218.231 126.360,218.116 126.800 C 218.001 127.240,217.670 127.600,217.380 127.600 C 217.091 127.600,216.740 127.960,216.600 128.400 C 216.460 128.840,216.192 129.200,216.005 129.200 C 215.544 129.200,212.000 132.767,212.000 133.232 C 212.000 133.434,211.713 133.600,211.363 133.600 C 211.012 133.600,210.631 133.960,210.516 134.400 C 210.401 134.840,210.041 135.200,209.716 135.200 C 209.391 135.200,209.031 135.560,208.916 136.000 C 208.801 136.440,208.441 136.800,208.116 136.800 C 207.791 136.800,207.431 137.160,207.316 137.600 C 207.201 138.040,206.841 138.400,206.516 138.400 C 206.191 138.400,205.831 138.760,205.716 139.200 C 205.601 139.640,205.241 140.000,204.916 140.000 C 204.591 140.000,204.231 140.360,204.116 140.800 C 204.001 141.240,203.641 141.600,203.316 141.600 C 202.991 141.600,202.635 141.943,202.526 142.363 C 202.152 143.791,199.200 143.782,199.200 142.353 C 199.200 141.882,198.918 141.600,198.447 141.600 C 198.030 141.600,197.600 141.243,197.484 140.800 C 197.369 140.360,196.988 140.000,196.637 140.000 C 196.267 140.000,196.000 139.665,196.000 139.200 C 196.000 138.683,195.733 138.400,195.247 138.400 C 194.830 138.400,194.400 138.043,194.284 137.600 C 194.169 137.160,193.788 136.800,193.437 136.800 C 193.087 136.800,192.800 136.524,192.800 136.187 C 192.800 135.851,192.537 135.474,192.215 135.350 C 191.894 135.227,191.521 134.783,191.388 134.363 C 191.255 133.943,190.947 133.600,190.704 133.600 C 190.167 133.600,186.800 130.144,186.800 129.593 C 186.800 129.377,186.461 129.200,186.047 129.200 C 185.630 129.200,185.200 128.843,185.084 128.400 C 184.969 127.960,184.609 127.600,184.284 127.600 C 183.959 127.600,183.599 127.240,183.484 126.800 C 183.369 126.360,183.009 126.000,182.684 126.000 C 182.359 126.000,181.999 125.640,181.884 125.200 C 181.769 124.760,181.409 124.400,181.084 124.400 C 180.759 124.400,180.399 124.040,180.284 123.600 C 180.169 123.160,179.788 122.800,179.437 122.800 C 179.067 122.800,178.800 122.465,178.800 122.000 C 178.800 121.483,178.533 121.200,178.047 121.200 C 177.630 121.200,177.200 120.843,177.084 120.400 C 176.969 119.960,176.588 119.600,176.237 119.600 C 175.887 119.600,175.600 119.428,175.600 119.217 C 175.600 118.746,168.897 112.000,168.430 112.000 C 168.245 112.000,167.999 111.640,167.884 111.200 C 167.769 110.760,167.388 110.400,167.037 110.400 C 166.667 110.400,166.400 110.065,166.400 109.600 C 166.400 109.083,166.133 108.800,165.647 108.800 C 165.230 108.800,164.800 108.443,164.684 108.000 C 164.569 107.560,164.209 107.200,163.884 107.200 C 163.559 107.200,163.199 106.840,163.084 106.400 C 162.969 105.960,162.588 105.600,162.237 105.600 C 161.867 105.600,161.600 105.265,161.600 104.800 C 161.600 104.283,161.333 104.000,160.847 104.000 C 160.430 104.000,160.000 103.643,159.884 103.200 C 159.769 102.760,159.388 102.400,159.037 102.400 C 158.687 102.400,158.400 102.228,158.400 102.017 C 158.400 101.502,151.719 94.800,151.206 94.800 C 150.983 94.800,150.800 94.513,150.800 94.163 C 150.800 93.812,150.440 93.431,150.000 93.316 C 149.557 93.200,149.200 92.770,149.200 92.353 C 149.200 91.939,148.938 91.600,148.618 91.600 C 147.864 91.600,146.000 89.736,146.000 88.982 C 146.000 88.662,145.640 88.400,145.200 88.400 C 144.735 88.400,144.400 88.133,144.400 87.763 C 144.400 87.412,144.040 87.031,143.600 86.916 C 143.160 86.801,142.800 86.545,142.800 86.348 C 142.800 85.895,136.084 79.200,135.629 79.200 C 135.445 79.200,135.199 78.840,135.084 78.400 C 134.969 77.960,134.609 77.600,134.284 77.600 C 133.959 77.600,133.599 77.240,133.484 76.800 C 133.369 76.360,133.009 76.000,132.684 76.000 C 132.359 76.000,131.999 75.640,131.884 75.200 C 131.769 74.760,131.409 74.400,131.084 74.400 C 130.759 74.400,130.399 74.040,130.284 73.600 C 130.169 73.160,129.809 72.800,129.484 72.800 C 129.159 72.800,128.799 72.440,128.684 72.000 C 128.569 71.560,128.209 71.200,127.884 71.200 C 127.559 71.200,127.199 70.840,127.084 70.400 C 126.969 69.960,126.588 69.600,126.237 69.600 C 125.887 69.600,125.600 69.428,125.600 69.217 C 125.600 68.746,118.897 62.000,118.430 62.000 C 118.245 62.000,117.999 61.640,117.884 61.200 C 117.769 60.760,117.409 60.400,117.084 60.400 C 116.759 60.400,116.399 60.040,116.284 59.600 C 116.169 59.160,115.809 58.800,115.484 58.800 C 115.159 58.800,114.799 58.440,114.684 58.000 C 114.569 57.560,114.209 57.200,113.884 57.200 C 113.559 57.200,113.199 56.840,113.084 56.400 C 112.969 55.960,112.609 55.600,112.284 55.600 C 111.959 55.600,111.599 55.240,111.484 54.800 C 111.369 54.360,111.009 54.000,110.684 54.000 C 110.359 54.000,109.999 53.640,109.884 53.200 C 109.769 52.760,109.388 52.400,109.037 52.400 C 108.687 52.400,108.400 52.196,108.400 51.946 C 108.400 51.409,106.763 49.825,105.844 49.472 C 105.490 49.336,105.200 48.949,105.200 48.613 C 105.200 48.276,104.930 48.000,104.600 48.000 C 104.270 48.000,104.000 47.806,104.000 47.569 C 104.000 47.035,101.802 44.800,101.277 44.800 C 101.066 44.800,100.799 44.440,100.684 44.000 C 100.569 43.560,100.188 43.200,99.837 43.200 C 99.487 43.200,99.200 42.913,99.200 42.563 C 99.200 42.212,98.840 41.831,98.400 41.716 C 97.960 41.601,97.600 41.241,97.600 40.916 C 97.600 40.591,97.240 40.231,96.800 40.116 C 96.360 40.001,96.000 39.641,96.000 39.316 C 96.000 38.991,95.640 38.631,95.200 38.516 C 94.760 38.401,94.400 38.041,94.400 37.716 C 94.400 37.391,94.040 37.031,93.600 36.916 C 93.160 36.801,92.800 36.441,92.800 36.116 C 92.800 35.791,92.457 35.435,92.037 35.326 C 91.617 35.216,91.184 34.783,91.074 34.363 C 90.965 33.943,90.588 33.600,90.237 33.600 C 89.887 33.600,89.600 33.330,89.600 33.000 C 89.600 32.670,89.313 32.400,88.963 32.400 C 88.612 32.400,88.231 32.040,88.116 31.600 C 88.001 31.160,87.679 30.800,87.400 30.800 C 87.121 30.800,86.799 30.440,86.684 30.000 C 86.569 29.560,86.209 29.200,85.884 29.200 C 85.559 29.200,85.199 28.840,85.084 28.400 C 84.969 27.960,84.609 27.600,84.284 27.600 C 83.959 27.600,83.599 27.240,83.484 26.800 C 83.369 26.360,83.009 26.000,82.684 26.000 C 82.359 26.000,81.999 25.640,81.884 25.200 C 81.769 24.760,81.409 24.400,81.084 24.400 C 80.759 24.400,80.399 24.040,80.284 23.600 C 80.169 23.160,79.809 22.800,79.484 22.800 C 79.159 22.800,78.799 22.440,78.684 22.000 C 78.569 21.560,78.188 21.200,77.837 21.200 C 77.487 21.200,77.200 20.942,77.200 20.627 C 77.200 20.312,76.859 19.946,76.443 19.814 C 76.027 19.682,75.594 19.219,75.481 18.787 C 75.367 18.354,74.988 18.000,74.637 18.000 C 74.287 18.000,74.000 17.751,74.000 17.447 C 74.000 17.142,73.640 16.799,73.200 16.684 C 72.760 16.569,72.400 16.209,72.400 15.884 C 72.400 15.559,72.040 15.199,71.600 15.084 C 71.160 14.969,70.800 14.588,70.800 14.237 C 70.800 13.887,70.542 13.600,70.227 13.600 C 69.912 13.600,69.540 13.240,69.400 12.800 C 69.260 12.360,68.900 12.000,68.600 12.000 C 68.300 12.000,67.940 11.640,67.800 11.200 C 67.660 10.760,67.288 10.400,66.973 10.400 C 66.658 10.400,66.400 10.124,66.400 9.787 C 66.400 9.451,66.085 9.057,65.700 8.914 C 65.315 8.770,64.765 8.326,64.477 7.926 C 64.190 7.527,63.785 7.200,63.577 7.200 C 63.370 7.200,62.840 6.840,62.400 6.400 C 61.960 5.960,61.261 5.600,60.847 5.600 C 60.430 5.600,60.000 5.243,59.884 4.800 C 59.737 4.236,59.338 4.000,58.534 4.000 C 57.826 4.000,57.203 3.696,56.893 3.200 C 56.618 2.760,56.117 2.400,55.780 2.400 C 55.443 2.400,54.780 2.040,54.308 1.600 C 53.673 1.008,52.896 0.800,51.325 0.800 C 50.156 0.800,49.200 0.620,49.200 0.400 C 49.200 0.157,47.400 0.000,44.600 0.000 C 41.860 0.000,40.000 0.159,40.000 0.392 M366.498 0.494 C 366.736 1.208,369.805 1.678,372.674 1.440 C 374.995 1.248,375.157 1.290,375.274 2.117 C 375.381 2.865,375.691 3.019,377.298 3.122 C 378.724 3.213,379.304 3.447,379.634 4.064 C 379.967 4.685,380.337 4.833,381.154 4.669 C 381.997 4.501,382.317 4.644,382.617 5.324 C 382.827 5.803,383.360 6.261,383.800 6.341 C 385.675 6.681,395.200 15.949,395.200 17.433 C 395.200 17.745,395.560 18.360,396.000 18.800 C 396.440 19.240,396.800 19.958,396.800 20.397 C 396.800 20.835,397.160 21.418,397.600 21.693 C 398.051 21.975,398.402 22.630,398.405 23.196 C 398.414 24.819,398.853 26.000,399.447 26.000 C 399.856 26.000,400.000 25.377,400.000 23.600 C 400.000 22.267,399.822 21.200,399.600 21.200 C 399.380 21.200,399.200 20.553,399.200 19.763 C 399.200 18.662,399.013 18.276,398.400 18.116 C 397.799 17.959,397.600 17.570,397.600 16.553 C 397.600 15.607,397.416 15.200,396.990 15.200 C 396.655 15.200,396.209 14.750,396.000 14.200 C 395.791 13.650,395.345 13.200,395.010 13.200 C 394.674 13.200,394.400 12.930,394.400 12.600 C 394.400 12.267,394.044 12.000,393.600 12.000 C 393.067 12.000,392.800 11.733,392.800 11.200 C 392.800 10.756,392.533 10.400,392.200 10.400 C 391.867 10.400,391.600 10.044,391.600 9.600 C 391.600 9.083,391.333 8.800,390.847 8.800 C 390.430 8.800,390.000 8.443,389.884 8.000 C 389.769 7.560,389.388 7.200,389.037 7.200 C 388.687 7.200,388.400 6.924,388.400 6.587 C 388.400 6.251,388.085 5.857,387.700 5.714 C 387.315 5.570,386.765 5.126,386.477 4.726 C 386.190 4.327,385.468 4.000,384.874 4.000 C 384.226 4.000,383.592 3.679,383.293 3.200 C 382.981 2.701,382.360 2.400,381.643 2.400 C 380.830 2.400,380.432 2.166,380.284 1.600 C 380.106 0.920,379.738 0.800,377.837 0.800 C 376.607 0.800,375.600 0.620,375.600 0.400 C 375.600 0.156,373.789 0.000,370.967 0.000 C 367.466 0.000,366.374 0.121,366.498 0.494 M21.507 1.600 C 21.232 2.040,20.691 2.400,20.304 2.400 C 19.917 2.400,19.240 2.760,18.800 3.200 C 18.360 3.640,17.640 4.000,17.200 4.000 C 16.760 4.000,16.040 4.360,15.600 4.800 C 15.160 5.240,14.542 5.600,14.227 5.600 C 13.912 5.600,13.540 5.960,13.400 6.400 C 13.260 6.840,12.888 7.200,12.573 7.200 C 12.258 7.200,12.000 7.560,12.000 8.000 C 12.000 8.533,11.733 8.800,11.200 8.800 C 10.667 8.800,10.400 9.067,10.400 9.600 C 10.400 10.133,10.133 10.400,9.600 10.400 C 9.067 10.400,8.800 10.667,8.800 11.200 C 8.800 11.733,8.533 12.000,8.000 12.000 C 7.560 12.000,7.200 12.258,7.200 12.573 C 7.200 12.888,6.840 13.260,6.400 13.400 C 5.960 13.540,5.600 13.912,5.600 14.227 C 5.600 14.542,5.240 15.160,4.800 15.600 C 4.360 16.040,4.000 16.760,4.000 17.200 C 4.000 17.640,3.640 18.360,3.200 18.800 C 2.760 19.240,2.400 19.917,2.400 20.304 C 2.400 20.691,2.040 21.232,1.600 21.507 C 0.467 22.215,0.398 26.800,1.520 26.800 C 2.660 26.800,3.200 25.969,3.200 24.216 C 3.200 22.998,3.411 22.461,4.044 22.065 C 4.701 21.655,4.836 21.280,4.654 20.369 C 4.461 19.404,4.553 19.200,5.183 19.200 C 5.606 19.200,6.065 18.827,6.212 18.362 C 7.248 15.099,15.099 7.248,18.362 6.212 C 18.827 6.065,19.200 5.606,19.200 5.183 C 19.200 4.553,19.404 4.461,20.369 4.654 C 21.280 4.836,21.655 4.701,22.065 4.044 C 22.461 3.411,22.998 3.200,24.216 3.200 C 25.969 3.200,26.800 2.660,26.800 1.520 C 26.800 0.398,22.215 0.467,21.507 1.600 M0.000 31.571 C 0.000 33.938,0.162 35.600,0.392 35.600 C 1.556 35.600,1.854 27.908,0.700 27.680 C 0.071 27.555,0.000 27.947,0.000 31.571 M0.000 44.600 C 0.000 47.400,0.157 49.200,0.400 49.200 C 0.620 49.200,0.800 50.166,0.800 51.346 C 0.800 52.886,1.026 53.779,1.600 54.509 C 2.040 55.069,2.400 55.721,2.400 55.960 C 2.400 56.198,2.760 56.618,3.200 56.893 C 3.696 57.203,4.000 57.826,4.000 58.534 C 4.000 59.338,4.236 59.737,4.800 59.884 C 5.243 60.000,5.600 60.430,5.600 60.847 C 5.600 61.261,5.960 61.960,6.400 62.400 C 6.840 62.840,7.200 63.370,7.200 63.577 C 7.200 63.785,7.527 64.190,7.926 64.477 C 8.326 64.765,8.770 65.315,8.914 65.700 C 9.057 66.085,9.451 66.400,9.787 66.400 C 10.124 66.400,10.400 66.670,10.400 67.000 C 10.400 67.541,10.875 67.778,11.700 67.647 C 11.865 67.621,12.000 67.948,12.000 68.373 C 12.000 68.798,12.360 69.260,12.800 69.400 C 13.240 69.540,13.600 69.912,13.600 70.227 C 13.600 70.542,13.887 70.800,14.237 70.800 C 14.588 70.800,14.969 71.160,15.084 71.600 C 15.199 72.040,15.481 72.400,15.711 72.400 C 16.183 72.400,18.400 74.768,18.400 75.272 C 18.400 75.452,18.658 75.600,18.973 75.600 C 19.288 75.600,19.660 75.960,19.800 76.400 C 19.940 76.840,20.312 77.200,20.627 77.200 C 20.942 77.200,21.200 77.458,21.200 77.773 C 21.200 78.088,21.560 78.460,22.000 78.600 C 22.440 78.740,22.800 79.129,22.800 79.464 C 22.800 79.800,23.160 80.169,23.600 80.284 C 24.040 80.399,24.400 80.759,24.400 81.084 C 24.400 81.409,24.760 81.769,25.200 81.884 C 25.640 81.999,26.000 82.359,26.000 82.684 C 26.000 83.009,26.360 83.369,26.800 83.484 C 27.240 83.599,27.600 83.959,27.600 84.284 C 27.600 84.609,27.960 84.969,28.400 85.084 C 28.840 85.199,29.200 85.548,29.200 85.859 C 29.200 86.170,29.501 86.541,29.869 86.682 C 30.769 87.027,33.829 90.114,33.689 90.534 C 33.627 90.718,33.926 90.960,34.352 91.071 C 34.778 91.183,35.216 91.617,35.326 92.037 C 35.435 92.457,35.791 92.800,36.116 92.800 C 36.441 92.800,36.801 93.160,36.916 93.600 C 37.031 94.040,37.391 94.400,37.716 94.400 C 38.041 94.400,38.401 94.760,38.516 95.200 C 38.631 95.640,38.991 96.000,39.316 96.000 C 39.641 96.000,40.001 96.360,40.116 96.800 C 40.231 97.240,40.612 97.600,40.963 97.600 C 41.313 97.600,41.600 97.858,41.600 98.173 C 41.600 98.488,41.951 98.857,42.380 98.994 C 42.808 99.130,43.271 99.594,43.408 100.026 C 43.545 100.458,43.824 100.709,44.027 100.583 C 44.230 100.458,44.604 100.809,44.857 101.365 C 45.110 101.920,45.444 102.296,45.600 102.200 C 45.756 102.104,46.085 102.469,46.333 103.013 C 46.580 103.556,47.057 104.000,47.391 104.000 C 47.726 104.000,48.000 104.270,48.000 104.600 C 48.000 104.930,48.276 105.200,48.613 105.200 C 48.949 105.200,49.336 105.490,49.472 105.844 C 49.810 106.725,51.400 108.400,51.899 108.400 C 52.123 108.400,52.401 108.760,52.516 109.200 C 52.631 109.640,52.991 110.000,53.316 110.000 C 53.641 110.000,54.001 110.360,54.116 110.800 C 54.231 111.240,54.612 111.600,54.963 111.600 C 55.313 111.600,55.600 111.876,55.600 112.213 C 55.600 112.549,55.888 112.936,56.240 113.071 C 57.064 113.387,58.613 114.936,58.929 115.760 C 59.064 116.112,59.451 116.400,59.787 116.400 C 60.124 116.400,60.400 116.687,60.400 117.037 C 60.400 117.388,60.760 117.769,61.200 117.884 C 61.640 117.999,62.000 118.245,62.000 118.430 C 62.000 118.897,68.746 125.600,69.217 125.600 C 69.428 125.600,69.600 125.887,69.600 126.237 C 69.600 126.588,69.960 126.969,70.400 127.084 C 70.843 127.200,71.200 127.630,71.200 128.047 C 71.200 128.518,71.482 128.800,71.953 128.800 C 72.370 128.800,72.800 129.157,72.916 129.600 C 73.031 130.040,73.391 130.400,73.716 130.400 C 74.041 130.400,74.401 130.760,74.516 131.200 C 74.631 131.640,74.991 132.000,75.316 132.000 C 75.641 132.000,76.001 132.360,76.116 132.800 C 76.231 133.240,76.591 133.600,76.916 133.600 C 77.241 133.600,77.601 133.960,77.716 134.400 C 77.831 134.840,78.212 135.200,78.563 135.200 C 78.913 135.200,79.200 135.372,79.200 135.583 C 79.200 136.069,85.866 142.800,86.348 142.800 C 86.545 142.800,86.801 143.160,86.916 143.600 C 87.031 144.040,87.412 144.400,87.763 144.400 C 88.133 144.400,88.400 144.735,88.400 145.200 C 88.400 145.717,88.667 146.000,89.153 146.000 C 89.570 146.000,90.000 146.357,90.116 146.800 C 90.231 147.240,90.612 147.600,90.963 147.600 C 91.333 147.600,91.600 147.935,91.600 148.400 C 91.600 148.917,91.867 149.200,92.353 149.200 C 92.770 149.200,93.200 149.557,93.316 150.000 C 93.431 150.440,93.812 150.800,94.163 150.800 C 94.513 150.800,94.800 150.979,94.800 151.198 C 94.800 151.652,101.555 158.400,102.009 158.400 C 102.173 158.400,102.401 158.760,102.516 159.200 C 102.631 159.640,103.012 160.000,103.363 160.000 C 103.733 160.000,104.000 160.335,104.000 160.800 C 104.000 161.317,104.267 161.600,104.753 161.600 C 105.170 161.600,105.600 161.957,105.716 162.400 C 105.831 162.840,106.191 163.200,106.516 163.200 C 106.841 163.200,107.201 163.560,107.316 164.000 C 107.431 164.440,107.812 164.800,108.163 164.800 C 108.533 164.800,108.800 165.135,108.800 165.600 C 108.800 166.117,109.067 166.400,109.553 166.400 C 109.970 166.400,110.400 166.757,110.516 167.200 C 110.631 167.640,111.012 168.000,111.363 168.000 C 111.713 168.000,112.000 168.155,112.000 168.344 C 112.000 168.802,118.704 175.600,119.155 175.600 C 119.348 175.600,119.601 175.960,119.716 176.400 C 119.831 176.840,120.212 177.200,120.563 177.200 C 120.933 177.200,121.200 177.535,121.200 178.000 C 121.200 178.517,121.467 178.800,121.953 178.800 C 122.370 178.800,122.800 179.157,122.916 179.600 C 123.031 180.040,123.391 180.400,123.716 180.400 C 124.041 180.400,124.401 180.760,124.516 181.200 C 124.631 181.640,124.991 182.000,125.316 182.000 C 125.641 182.000,126.001 182.360,126.116 182.800 C 126.231 183.240,126.591 183.600,126.916 183.600 C 127.241 183.600,127.601 183.960,127.716 184.400 C 127.831 184.840,128.212 185.200,128.563 185.200 C 128.933 185.200,129.200 185.535,129.200 186.000 C 129.200 186.440,129.377 186.800,129.593 186.800 C 130.144 186.800,133.600 190.167,133.600 190.704 C 133.600 190.947,133.943 191.255,134.363 191.388 C 134.783 191.521,135.227 191.894,135.350 192.215 C 135.474 192.537,135.851 192.800,136.187 192.800 C 136.524 192.800,136.800 193.087,136.800 193.437 C 136.800 193.788,137.160 194.169,137.600 194.284 C 138.043 194.400,138.400 194.830,138.400 195.247 C 138.400 195.733,138.683 196.000,139.200 196.000 C 139.665 196.000,140.000 196.267,140.000 196.637 C 140.000 196.988,140.360 197.369,140.800 197.484 C 141.243 197.600,141.600 198.030,141.600 198.447 C 141.600 198.918,141.882 199.200,142.353 199.200 C 143.782 199.200,143.791 202.152,142.363 202.526 C 141.943 202.635,141.600 202.991,141.600 203.316 C 141.600 203.641,141.240 204.001,140.800 204.116 C 140.360 204.231,140.000 204.591,140.000 204.916 C 140.000 205.241,139.640 205.601,139.200 205.716 C 138.760 205.831,138.400 206.191,138.400 206.516 C 138.400 206.841,138.040 207.201,137.600 207.316 C 137.160 207.431,136.800 207.791,136.800 208.116 C 136.800 208.441,136.440 208.801,136.000 208.916 C 135.560 209.031,135.200 209.391,135.200 209.716 C 135.200 210.041,134.840 210.401,134.400 210.516 C 133.960 210.631,133.600 211.012,133.600 211.363 C 133.600 211.713,133.434 212.000,133.232 212.000 C 132.767 212.000,129.200 215.544,129.200 216.005 C 129.200 216.192,128.840 216.460,128.400 216.600 C 127.960 216.740,127.600 217.091,127.600 217.380 C 127.600 217.670,127.240 218.001,126.800 218.116 C 126.360 218.231,126.000 218.591,126.000 218.916 C 126.000 219.241,125.640 219.601,125.200 219.716 C 124.760 219.831,124.400 220.191,124.400 220.516 C 124.400 220.841,124.040 221.201,123.600 221.316 C 123.160 221.431,122.800 221.791,122.800 222.116 C 122.800 222.441,122.440 222.801,122.000 222.916 C 121.560 223.031,121.200 223.391,121.200 223.716 C 121.200 224.041,120.840 224.401,120.400 224.516 C 119.960 224.631,119.600 224.991,119.600 225.316 C 119.600 225.641,119.240 226.001,118.800 226.116 C 118.360 226.231,118.000 226.612,118.000 226.963 C 118.000 227.313,117.742 227.600,117.427 227.600 C 117.112 227.600,116.740 227.960,116.600 228.400 C 116.460 228.840,116.192 229.200,116.005 229.200 C 115.571 229.200,112.000 232.754,112.000 233.185 C 112.000 233.362,111.640 233.601,111.200 233.716 C 110.760 233.831,110.400 234.191,110.400 234.516 C 110.400 234.841,110.040 235.201,109.600 235.316 C 109.160 235.431,108.800 235.791,108.800 236.116 C 108.800 236.441,108.440 236.801,108.000 236.916 C 107.560 237.031,107.200 237.391,107.200 237.716 C 107.200 238.041,106.840 238.401,106.400 238.516 C 105.960 238.631,105.600 239.012,105.600 239.363 C 105.600 239.713,105.313 240.000,104.963 240.000 C 104.612 240.000,104.235 240.343,104.126 240.763 C 104.016 241.183,103.583 241.616,103.163 241.726 C 102.743 241.835,102.400 242.191,102.400 242.516 C 102.400 242.841,102.040 243.201,101.600 243.316 C 101.160 243.431,100.800 243.812,100.800 244.163 C 100.800 244.513,100.637 244.800,100.437 244.800 C 99.964 244.800,94.800 249.964,94.800 250.437 C 94.800 250.637,94.513 250.800,94.163 250.800 C 93.812 250.800,93.431 251.160,93.316 251.600 C 93.201 252.040,92.841 252.400,92.516 252.400 C 92.191 252.400,91.831 252.760,91.716 253.200 C 91.601 253.640,91.241 254.000,90.916 254.000 C 90.591 254.000,90.231 254.360,90.116 254.800 C 90.001 255.240,89.641 255.600,89.316 255.600 C 88.991 255.600,88.635 255.943,88.526 256.363 C 88.416 256.783,87.965 257.221,87.523 257.336 C 87.081 257.452,86.838 257.739,86.984 257.974 C 87.131 258.212,86.793 258.574,86.224 258.791 C 85.661 259.005,85.200 259.455,85.200 259.790 C 85.200 260.126,84.913 260.400,84.563 260.400 C 84.212 260.400,83.831 260.760,83.716 261.200 C 83.601 261.640,83.362 262.000,83.185 262.000 C 82.754 262.000,79.200 265.571,79.200 266.005 C 79.200 266.192,78.840 266.460,78.400 266.600 C 77.960 266.740,77.600 267.112,77.600 267.427 C 77.600 267.742,77.313 268.000,76.963 268.000 C 76.612 268.000,76.231 268.360,76.116 268.800 C 76.001 269.240,75.641 269.600,75.316 269.600 C 74.991 269.600,74.631 269.960,74.516 270.400 C 74.401 270.840,74.041 271.200,73.716 271.200 C 73.391 271.200,73.031 271.560,72.916 272.000 C 72.801 272.440,72.441 272.800,72.116 272.800 C 71.791 272.800,71.431 273.160,71.316 273.600 C 71.201 274.040,70.841 274.400,70.516 274.400 C 70.191 274.400,69.831 274.760,69.716 275.200 C 69.601 275.640,69.241 276.000,68.916 276.000 C 68.591 276.000,68.231 276.360,68.116 276.800 C 68.001 277.240,67.658 277.600,67.353 277.600 C 67.049 277.600,66.800 277.876,66.800 278.213 C 66.800 278.549,66.522 278.932,66.182 279.062 C 65.389 279.366,62.000 282.746,62.000 283.232 C 62.000 283.434,61.713 283.600,61.363 283.600 C 61.012 283.600,60.631 283.960,60.516 284.400 C 60.401 284.840,60.041 285.200,59.716 285.200 C 59.391 285.200,59.031 285.560,58.916 286.000 C 58.801 286.440,58.441 286.800,58.116 286.800 C 57.791 286.800,57.431 287.160,57.316 287.600 C 57.201 288.040,56.841 288.400,56.516 288.400 C 56.191 288.400,55.831 288.760,55.716 289.200 C 55.601 289.640,55.241 290.000,54.916 290.000 C 54.591 290.000,54.231 290.360,54.116 290.800 C 54.001 291.240,53.641 291.600,53.316 291.600 C 52.991 291.600,52.631 291.960,52.516 292.400 C 52.401 292.840,52.041 293.200,51.716 293.200 C 51.391 293.200,51.031 293.560,50.916 294.000 C 50.801 294.440,50.479 294.800,50.200 294.800 C 49.921 294.800,49.599 295.160,49.484 295.600 C 49.369 296.040,49.009 296.400,48.684 296.400 C 48.359 296.400,47.999 296.760,47.884 297.200 C 47.769 297.640,47.409 298.000,47.084 298.000 C 46.759 298.000,46.399 298.360,46.284 298.800 C 46.169 299.240,45.788 299.600,45.437 299.600 C 45.087 299.600,44.800 299.870,44.800 300.200 C 44.800 300.530,44.513 300.800,44.163 300.800 C 43.812 300.800,43.431 301.160,43.316 301.600 C 43.201 302.040,42.841 302.400,42.516 302.400 C 42.191 302.400,41.831 302.760,41.716 303.200 C 41.601 303.640,41.241 304.000,40.916 304.000 C 40.591 304.000,40.231 304.360,40.116 304.800 C 40.001 305.240,39.641 305.600,39.316 305.600 C 38.991 305.600,38.631 305.960,38.516 306.400 C 38.401 306.840,38.070 307.200,37.780 307.200 C 37.491 307.200,37.140 307.560,37.000 308.000 C 36.860 308.440,36.471 308.800,36.136 308.800 C 35.800 308.800,35.431 309.160,35.316 309.600 C 35.201 310.040,34.841 310.400,34.516 310.400 C 34.191 310.400,33.831 310.760,33.716 311.200 C 33.601 311.640,33.279 312.000,33.000 312.000 C 32.721 312.000,32.399 312.360,32.284 312.800 C 32.169 313.240,31.809 313.600,31.484 313.600 C 31.159 313.600,30.799 313.960,30.684 314.400 C 30.569 314.840,30.209 315.200,29.884 315.200 C 29.559 315.200,29.199 315.560,29.084 316.000 C 28.969 316.440,28.588 316.800,28.237 316.800 C 27.887 316.800,27.600 317.070,27.600 317.400 C 27.600 317.730,27.313 318.000,26.963 318.000 C 26.612 318.000,26.233 318.354,26.119 318.787 C 26.006 319.219,25.573 319.682,25.157 319.814 C 24.741 319.946,24.400 320.312,24.400 320.627 C 24.400 320.942,24.113 321.200,23.763 321.200 C 23.412 321.200,23.031 321.560,22.916 322.000 C 22.801 322.440,22.441 322.800,22.116 322.800 C 21.791 322.800,21.431 323.160,21.316 323.600 C 21.201 324.040,20.870 324.400,20.580 324.400 C 20.291 324.400,19.940 324.760,19.800 325.200 C 19.660 325.640,19.300 326.000,19.000 326.000 C 18.700 326.000,18.340 326.360,18.200 326.800 C 18.060 327.240,17.688 327.600,17.373 327.600 C 17.058 327.600,16.800 327.960,16.800 328.400 C 16.800 328.933,16.533 329.200,16.000 329.200 C 15.467 329.200,15.200 329.467,15.200 330.000 C 15.200 330.533,14.933 330.800,14.400 330.800 C 13.935 330.800,13.600 331.067,13.600 331.437 C 13.600 331.788,13.240 332.169,12.800 332.284 C 12.360 332.399,12.000 332.730,12.000 333.020 C 12.000 333.309,11.640 333.660,11.200 333.800 C 10.760 333.940,10.400 334.300,10.400 334.600 C 10.400 334.900,10.040 335.260,9.600 335.400 C 9.160 335.540,8.800 335.889,8.800 336.176 C 8.800 336.464,8.080 337.487,7.200 338.449 C 6.320 339.412,5.600 340.494,5.600 340.853 C 5.600 341.213,5.240 341.601,4.800 341.716 C 4.187 341.876,4.000 342.262,4.000 343.363 C 4.000 344.325,3.816 344.800,3.443 344.800 C 2.849 344.800,2.400 345.634,2.400 346.736 C 2.400 347.106,2.040 347.632,1.600 347.907 C 0.974 348.298,0.800 348.840,0.800 350.403 C 0.800 351.502,0.620 352.400,0.400 352.400 C 0.156 352.400,0.000 354.267,0.000 357.200 C 0.000 360.071,0.158 362.000,0.392 362.000 C 1.035 362.000,1.400 360.008,1.400 356.500 C 1.400 353.705,1.501 353.200,2.057 353.200 C 2.863 353.200,3.200 352.393,3.200 350.464 C 3.200 349.411,3.435 348.846,4.025 348.477 C 4.543 348.154,4.804 347.633,4.725 347.081 C 4.645 346.518,4.888 346.052,5.396 345.790 C 5.835 345.564,6.260 345.024,6.341 344.590 C 6.423 344.155,6.739 343.656,7.045 343.480 C 7.350 343.304,7.600 342.997,7.600 342.798 C 7.600 341.760,14.728 334.508,78.321 270.838 C 132.424 216.670,147.200 201.666,147.200 200.895 C 147.200 200.128,138.348 191.043,106.500 159.124 C 60.559 113.082,63.102 115.608,62.700 115.603 C 62.535 115.602,62.400 115.456,62.400 115.280 C 62.400 115.104,50.084 102.599,35.030 87.490 C 19.977 72.381,7.544 59.655,7.403 59.210 C 7.262 58.764,7.001 58.400,6.823 58.400 C 6.645 58.400,6.397 57.883,6.270 57.252 C 6.128 56.540,5.723 56.021,5.204 55.885 C 4.539 55.711,4.420 55.461,4.621 54.660 C 4.812 53.899,4.669 53.525,4.037 53.130 C 3.433 52.753,3.200 52.196,3.200 51.132 C 3.200 49.816,2.408 48.400,1.671 48.400 C 1.522 48.400,1.400 47.005,1.400 45.300 C 1.400 41.975,1.025 40.000,0.392 40.000 C 0.159 40.000,0.000 41.860,0.000 44.600 M398.814 49.974 C 398.586 50.399,398.400 51.280,398.400 51.931 C 398.400 52.614,398.146 53.212,397.800 53.345 C 397.470 53.471,397.200 54.020,397.200 54.565 C 397.200 55.109,396.869 55.790,396.465 56.077 C 396.060 56.365,395.608 57.090,395.460 57.688 C 395.162 58.892,381.328 72.902,303.100 151.227 C 266.907 187.465,254.400 200.222,254.400 200.900 C 254.400 201.580,272.214 219.658,324.174 271.709 C 362.550 310.152,394.062 341.964,394.201 342.403 C 394.340 342.841,394.602 343.200,394.784 343.200 C 394.965 343.200,395.225 343.645,395.361 344.188 C 395.498 344.732,395.967 345.368,396.405 345.603 C 396.914 345.875,397.200 346.440,397.200 347.171 C 397.200 347.818,397.460 348.414,397.800 348.545 C 398.130 348.671,398.402 349.186,398.405 349.687 C 398.415 351.226,398.865 352.400,399.447 352.400 C 399.869 352.400,400.000 351.688,400.000 349.400 C 400.000 347.667,399.831 346.400,399.600 346.400 C 399.380 346.400,399.200 346.074,399.200 345.675 C 399.200 345.277,398.840 344.564,398.400 344.092 C 397.960 343.620,397.600 342.939,397.600 342.579 C 397.600 342.219,397.240 341.831,396.800 341.716 C 396.257 341.574,395.999 341.168,395.996 340.453 C 395.993 339.729,395.494 338.962,394.400 338.000 C 393.524 337.230,392.806 336.387,392.804 336.127 C 392.802 335.867,392.440 335.540,392.000 335.400 C 391.560 335.260,391.200 334.900,391.200 334.600 C 391.200 334.300,390.840 333.940,390.400 333.800 C 389.960 333.660,389.600 333.288,389.600 332.973 C 389.600 332.658,389.313 332.400,388.963 332.400 C 388.612 332.400,388.231 332.040,388.116 331.600 C 388.001 331.160,387.670 330.800,387.380 330.800 C 387.091 330.800,386.740 330.440,386.600 330.000 C 386.460 329.560,386.100 329.200,385.800 329.200 C 385.500 329.200,385.140 328.840,385.000 328.400 C 384.860 327.960,384.500 327.600,384.200 327.600 C 383.900 327.600,383.540 327.240,383.400 326.800 C 383.260 326.360,382.909 326.000,382.620 326.000 C 382.330 326.000,381.999 325.640,381.884 325.200 C 381.769 324.760,381.409 324.400,381.084 324.400 C 380.759 324.400,380.399 324.040,380.284 323.600 C 380.169 323.160,379.809 322.800,379.484 322.800 C 379.159 322.800,378.799 322.440,378.684 322.000 C 378.569 321.560,378.209 321.200,377.884 321.200 C 377.559 321.200,377.199 320.840,377.084 320.400 C 376.969 319.960,376.609 319.600,376.284 319.600 C 375.959 319.600,375.599 319.240,375.484 318.800 C 375.369 318.360,374.988 318.000,374.637 318.000 C 374.287 318.000,374.000 317.730,374.000 317.400 C 374.000 317.070,373.713 316.800,373.363 316.800 C 373.012 316.800,372.631 316.440,372.516 316.000 C 372.401 315.560,372.041 315.200,371.716 315.200 C 371.391 315.200,371.031 314.840,370.916 314.400 C 370.801 313.960,370.479 313.600,370.200 313.600 C 369.921 313.600,369.599 313.240,369.484 312.800 C 369.369 312.360,369.009 312.000,368.684 312.000 C 368.359 312.000,367.999 311.640,367.884 311.200 C 367.769 310.760,367.409 310.400,367.084 310.400 C 366.759 310.400,366.399 310.040,366.284 309.600 C 366.169 309.160,365.809 308.800,365.484 308.800 C 365.159 308.800,364.799 308.440,364.684 308.000 C 364.569 307.560,364.209 307.200,363.884 307.200 C 363.559 307.200,363.199 306.840,363.084 306.400 C 362.969 305.960,362.609 305.600,362.284 305.600 C 361.959 305.600,361.599 305.240,361.484 304.800 C 361.369 304.360,361.009 304.000,360.684 304.000 C 360.359 304.000,359.999 303.640,359.884 303.200 C 359.769 302.760,359.409 302.400,359.084 302.400 C 358.759 302.400,358.399 302.040,358.284 301.600 C 358.169 301.160,357.788 300.800,357.437 300.800 C 357.087 300.800,356.800 300.530,356.800 300.200 C 356.800 299.870,356.513 299.600,356.163 299.600 C 355.812 299.600,355.431 299.240,355.316 298.800 C 355.201 298.360,354.858 298.000,354.553 298.000 C 354.249 298.000,354.000 297.806,354.000 297.569 C 354.000 297.035,351.802 294.800,351.277 294.800 C 351.066 294.800,350.799 294.440,350.684 294.000 C 350.569 293.560,350.209 293.200,349.884 293.200 C 349.559 293.200,349.199 292.840,349.084 292.400 C 348.969 291.960,348.609 291.600,348.284 291.600 C 347.959 291.600,347.599 291.240,347.484 290.800 C 347.369 290.360,347.009 290.000,346.684 290.000 C 346.359 290.000,345.999 289.640,345.884 289.200 C 345.769 288.760,345.409 288.400,345.084 288.400 C 344.759 288.400,344.399 288.040,344.284 287.600 C 344.169 287.160,343.788 286.800,343.437 286.800 C 343.087 286.800,342.800 286.617,342.800 286.394 C 342.800 285.909,336.113 279.200,335.629 279.200 C 335.445 279.200,335.199 278.840,335.084 278.400 C 334.969 277.960,334.609 277.600,334.284 277.600 C 333.959 277.600,333.599 277.240,333.484 276.800 C 333.369 276.360,333.009 276.000,332.684 276.000 C 332.359 276.000,331.999 275.640,331.884 275.200 C 331.769 274.760,331.409 274.400,331.084 274.400 C 330.759 274.400,330.399 274.040,330.284 273.600 C 330.169 273.160,329.809 272.800,329.484 272.800 C 329.159 272.800,328.799 272.440,328.684 272.000 C 328.569 271.560,328.209 271.200,327.884 271.200 C 327.559 271.200,327.199 270.840,327.084 270.400 C 326.969 269.960,326.588 269.600,326.237 269.600 C 325.887 269.600,325.600 269.428,325.600 269.217 C 325.600 268.746,318.897 262.000,318.430 262.000 C 318.245 262.000,317.999 261.640,317.884 261.200 C 317.769 260.760,317.388 260.400,317.037 260.400 C 316.667 260.400,316.400 260.065,316.400 259.600 C 316.400 259.083,316.133 258.800,315.647 258.800 C 315.230 258.800,314.800 258.443,314.684 258.000 C 314.569 257.560,314.209 257.200,313.884 257.200 C 313.559 257.200,313.199 256.840,313.084 256.400 C 312.969 255.960,312.588 255.600,312.237 255.600 C 311.867 255.600,311.600 255.265,311.600 254.800 C 311.600 254.267,311.333 254.000,310.800 254.000 C 310.335 254.000,310.000 253.733,310.000 253.363 C 310.000 253.012,309.640 252.631,309.200 252.516 C 308.760 252.401,308.400 252.155,308.400 251.971 C 308.400 251.487,301.691 244.800,301.206 244.800 C 300.983 244.800,300.800 244.513,300.800 244.163 C 300.800 243.812,300.440 243.431,300.000 243.316 C 299.557 243.200,299.200 242.770,299.200 242.353 C 299.200 241.867,298.917 241.600,298.400 241.600 C 297.935 241.600,297.600 241.333,297.600 240.963 C 297.600 240.612,297.240 240.231,296.800 240.116 C 296.357 240.000,296.000 239.570,296.000 239.153 C 296.000 238.667,295.717 238.400,295.200 238.400 C 294.735 238.400,294.400 238.133,294.400 237.763 C 294.400 237.412,294.040 237.031,293.600 236.916 C 293.160 236.801,292.800 236.545,292.800 236.348 C 292.800 235.866,286.069 229.200,285.583 229.200 C 285.372 229.200,285.200 228.913,285.200 228.563 C 285.200 228.212,284.840 227.831,284.400 227.716 C 283.960 227.601,283.600 227.241,283.600 226.916 C 283.600 226.591,283.240 226.231,282.800 226.116 C 282.360 226.001,282.000 225.641,282.000 225.316 C 282.000 224.991,281.640 224.631,281.200 224.516 C 280.760 224.401,280.400 224.041,280.400 223.716 C 280.400 223.391,280.040 223.031,279.600 222.916 C 279.157 222.800,278.800 222.370,278.800 221.953 C 278.800 221.467,278.517 221.200,278.000 221.200 C 277.535 221.200,277.200 220.933,277.200 220.563 C 277.200 220.212,276.840 219.831,276.400 219.716 C 275.960 219.601,275.600 219.359,275.600 219.178 C 275.600 218.694,268.898 212.000,268.413 212.000 C 268.186 212.000,268.000 211.713,268.000 211.363 C 268.000 211.012,267.640 210.631,267.200 210.516 C 266.757 210.400,266.400 209.970,266.400 209.553 C 266.400 209.067,266.117 208.800,265.600 208.800 C 265.135 208.800,264.800 208.533,264.800 208.163 C 264.800 207.812,264.440 207.431,264.000 207.316 C 263.560 207.201,263.200 206.841,263.200 206.516 C 263.200 206.191,262.840 205.831,262.400 205.716 C 261.957 205.600,261.600 205.170,261.600 204.753 C 261.600 204.267,261.317 204.000,260.800 204.000 C 260.335 204.000,260.000 203.733,260.000 203.363 C 260.000 203.012,259.640 202.631,259.200 202.516 C 258.573 202.352,258.400 201.970,258.400 200.753 C 258.400 199.467,258.537 199.200,259.200 199.200 C 259.733 199.200,260.000 198.933,260.000 198.400 C 260.000 197.867,260.267 197.600,260.800 197.600 C 261.333 197.600,261.600 197.333,261.600 196.800 C 261.600 196.267,261.867 196.000,262.400 196.000 C 262.933 196.000,263.200 195.733,263.200 195.200 C 263.200 194.667,263.467 194.400,264.000 194.400 C 264.533 194.400,264.800 194.133,264.800 193.600 C 264.800 193.067,265.067 192.800,265.600 192.800 C 266.040 192.800,266.400 192.542,266.400 192.227 C 266.400 191.912,266.760 191.540,267.200 191.400 C 267.640 191.260,268.000 190.900,268.000 190.600 C 268.000 190.300,268.360 189.940,268.800 189.800 C 269.240 189.660,269.600 189.386,269.600 189.191 C 269.600 188.730,271.530 186.800,271.991 186.800 C 272.186 186.800,272.460 186.440,272.600 186.000 C 272.740 185.560,273.100 185.200,273.400 185.200 C 273.700 185.200,274.055 184.857,274.188 184.437 C 274.321 184.017,274.694 183.573,275.015 183.450 C 275.337 183.326,275.600 182.949,275.600 182.613 C 275.600 182.267,275.948 182.000,276.400 182.000 C 276.933 182.000,277.200 181.733,277.200 181.200 C 277.200 180.667,277.467 180.400,278.000 180.400 C 278.533 180.400,278.800 180.133,278.800 179.600 C 278.800 179.067,279.067 178.800,279.600 178.800 C 280.133 178.800,280.400 178.533,280.400 178.000 C 280.400 177.467,280.667 177.200,281.200 177.200 C 281.733 177.200,282.000 176.933,282.000 176.400 C 282.000 175.960,282.193 175.600,282.430 175.600 C 282.666 175.600,284.891 173.530,287.375 171.000 C 289.858 168.470,292.095 166.400,292.345 166.400 C 292.595 166.400,292.800 166.040,292.800 165.600 C 292.800 165.067,293.067 164.800,293.600 164.800 C 294.133 164.800,294.400 164.533,294.400 164.000 C 294.400 163.467,294.667 163.200,295.200 163.200 C 295.733 163.200,296.000 162.933,296.000 162.400 C 296.000 161.867,296.267 161.600,296.800 161.600 C 297.333 161.600,297.600 161.333,297.600 160.800 C 297.600 160.267,297.867 160.000,298.400 160.000 C 298.933 160.000,299.200 159.733,299.200 159.200 C 299.200 158.760,299.361 158.400,299.558 158.400 C 300.026 158.400,308.400 150.026,308.400 149.558 C 308.400 149.361,308.760 149.200,309.200 149.200 C 309.733 149.200,310.000 148.933,310.000 148.400 C 310.000 147.867,310.267 147.600,310.800 147.600 C 311.333 147.600,311.600 147.333,311.600 146.800 C 311.600 146.267,311.867 146.000,312.400 146.000 C 312.933 146.000,313.200 145.733,313.200 145.200 C 313.200 144.667,313.467 144.400,314.000 144.400 C 314.533 144.400,314.800 144.133,314.800 143.600 C 314.800 143.067,315.067 142.800,315.600 142.800 C 316.040 142.800,316.400 142.607,316.400 142.370 C 316.400 142.134,318.470 139.894,321.000 137.392 C 323.530 134.890,325.600 132.653,325.600 132.421 C 325.600 132.190,325.960 132.000,326.400 132.000 C 326.933 132.000,327.200 131.733,327.200 131.200 C 327.200 130.667,327.467 130.400,328.000 130.400 C 328.533 130.400,328.800 130.133,328.800 129.600 C 328.800 129.067,329.067 128.800,329.600 128.800 C 330.133 128.800,330.400 128.533,330.400 128.000 C 330.400 127.467,330.667 127.200,331.200 127.200 C 331.733 127.200,332.000 126.933,332.000 126.400 C 332.000 125.960,332.182 125.600,332.404 125.600 C 332.902 125.600,342.800 115.746,342.800 115.251 C 342.800 115.054,343.160 114.799,343.600 114.684 C 344.040 114.569,344.400 114.209,344.400 113.884 C 344.400 113.559,344.760 113.199,345.200 113.084 C 345.640 112.969,346.000 112.609,346.000 112.284 C 346.000 111.959,346.360 111.599,346.800 111.484 C 347.240 111.369,347.600 110.988,347.600 110.637 C 347.600 110.287,347.887 110.000,348.237 110.000 C 348.588 110.000,348.969 109.640,349.084 109.200 C 349.199 108.760,349.458 108.400,349.660 108.400 C 350.144 108.400,356.800 101.751,356.800 101.268 C 356.800 101.062,357.160 100.799,357.600 100.684 C 358.040 100.569,358.400 100.200,358.400 99.864 C 358.400 99.529,358.760 99.140,359.200 99.000 C 359.640 98.860,360.000 98.500,360.000 98.200 C 360.000 97.900,360.360 97.540,360.800 97.400 C 361.240 97.260,361.600 96.909,361.600 96.620 C 361.600 96.330,361.960 95.999,362.400 95.884 C 362.840 95.769,363.200 95.409,363.200 95.084 C 363.200 94.759,363.560 94.399,364.000 94.284 C 364.440 94.169,364.800 93.809,364.800 93.484 C 364.800 93.159,365.160 92.799,365.600 92.684 C 366.040 92.569,366.400 92.209,366.400 91.884 C 366.400 91.559,366.778 91.194,367.240 91.074 C 367.704 90.952,367.962 90.662,367.816 90.426 C 367.669 90.188,368.015 89.822,368.600 89.600 C 369.185 89.378,369.531 89.012,369.384 88.774 C 369.238 88.538,369.496 88.248,369.960 88.126 C 370.422 88.006,370.800 87.679,370.800 87.400 C 370.800 87.121,371.160 86.799,371.600 86.684 C 372.040 86.569,372.400 86.209,372.400 85.884 C 372.400 85.559,372.760 85.199,373.200 85.084 C 373.640 84.969,374.000 84.588,374.000 84.237 C 374.000 83.887,374.287 83.600,374.637 83.600 C 374.988 83.600,375.369 83.240,375.484 82.800 C 375.599 82.360,375.930 82.000,376.220 82.000 C 376.509 82.000,376.860 81.640,377.000 81.200 C 377.140 80.760,377.500 80.400,377.800 80.400 C 378.100 80.400,378.457 80.049,378.594 79.620 C 378.730 79.192,379.192 78.730,379.620 78.594 C 380.049 78.457,380.400 78.088,380.400 77.773 C 380.400 77.458,380.687 77.200,381.037 77.200 C 381.388 77.200,381.769 76.840,381.884 76.400 C 381.999 75.960,382.330 75.600,382.620 75.600 C 382.909 75.600,383.257 75.249,383.394 74.820 C 383.530 74.392,383.992 73.930,384.420 73.794 C 384.849 73.657,385.200 73.288,385.200 72.973 C 385.200 72.658,385.458 72.400,385.773 72.400 C 386.088 72.400,386.460 72.040,386.600 71.600 C 386.740 71.160,387.112 70.800,387.427 70.800 C 387.742 70.800,388.000 70.542,388.000 70.227 C 388.000 69.912,388.360 69.540,388.800 69.400 C 389.240 69.260,389.600 68.900,389.600 68.600 C 389.600 68.300,389.960 67.940,390.400 67.800 C 390.840 67.660,391.200 67.309,391.200 67.020 C 391.200 66.730,391.560 66.399,392.000 66.284 C 392.440 66.169,392.800 65.788,392.800 65.437 C 392.800 65.087,393.076 64.800,393.413 64.800 C 393.749 64.800,394.143 64.485,394.286 64.100 C 394.430 63.715,394.874 63.165,395.274 62.877 C 395.673 62.590,396.000 62.185,396.000 61.977 C 396.000 61.770,396.360 61.240,396.800 60.800 C 397.240 60.360,397.600 59.730,397.600 59.400 C 397.600 59.070,397.960 58.440,398.400 58.000 C 398.840 57.560,399.200 56.750,399.200 56.200 C 399.200 55.650,399.380 55.200,399.600 55.200 C 399.831 55.200,400.000 53.933,400.000 52.200 C 400.000 49.218,399.610 48.486,398.814 49.974 M151.227 303.100 C 72.954 381.278,58.892 395.162,57.688 395.460 C 57.090 395.608,56.365 396.060,56.077 396.465 C 55.790 396.869,55.109 397.200,54.565 397.200 C 54.020 397.200,53.471 397.470,53.345 397.800 C 53.212 398.146,52.614 398.400,51.931 398.400 C 50.608 398.400,49.200 399.026,49.200 399.614 C 49.200 399.828,50.540 400.000,52.200 400.000 C 53.933 400.000,55.200 399.831,55.200 399.600 C 55.200 399.380,55.650 399.200,56.200 399.200 C 56.750 399.200,57.560 398.840,58.000 398.400 C 58.440 397.960,59.070 397.600,59.400 397.600 C 59.730 397.600,60.360 397.240,60.800 396.800 C 61.240 396.360,61.770 396.000,61.977 396.000 C 62.185 396.000,62.590 395.673,62.877 395.274 C 63.165 394.874,63.715 394.430,64.100 394.286 C 64.485 394.143,64.800 393.770,64.800 393.459 C 64.800 393.148,65.160 392.799,65.600 392.684 C 66.040 392.569,66.400 392.188,66.400 391.837 C 66.400 391.487,66.658 391.200,66.973 391.200 C 67.288 391.200,67.660 390.840,67.800 390.400 C 67.940 389.960,68.300 389.600,68.600 389.600 C 68.900 389.600,69.260 389.240,69.400 388.800 C 69.540 388.360,69.912 388.000,70.227 388.000 C 70.542 388.000,70.800 387.742,70.800 387.427 C 70.800 387.112,71.160 386.740,71.600 386.600 C 72.040 386.460,72.400 386.088,72.400 385.773 C 72.400 385.458,72.658 385.200,72.973 385.200 C 73.288 385.200,73.654 384.859,73.786 384.443 C 73.918 384.027,74.381 383.594,74.813 383.481 C 75.246 383.367,75.600 383.009,75.600 382.684 C 75.600 382.359,75.960 381.999,76.400 381.884 C 76.840 381.769,77.200 381.388,77.200 381.037 C 77.200 380.687,77.458 380.400,77.773 380.400 C 78.088 380.400,78.457 380.049,78.594 379.620 C 78.730 379.192,79.192 378.730,79.620 378.594 C 80.049 378.457,80.400 378.100,80.400 377.800 C 80.400 377.500,80.760 377.140,81.200 377.000 C 81.640 376.860,82.000 376.509,82.000 376.220 C 82.000 375.930,82.360 375.599,82.800 375.484 C 83.240 375.369,83.600 375.009,83.600 374.684 C 83.600 374.359,83.960 373.999,84.400 373.884 C 84.840 373.769,85.200 373.409,85.200 373.084 C 85.200 372.759,85.560 372.399,86.000 372.284 C 86.440 372.169,86.800 371.788,86.800 371.437 C 86.800 371.087,87.049 370.800,87.353 370.800 C 87.658 370.800,88.006 370.422,88.126 369.960 C 88.248 369.496,88.538 369.238,88.774 369.384 C 89.012 369.531,89.378 369.185,89.600 368.600 C 89.822 368.015,90.188 367.669,90.426 367.816 C 90.661 367.962,90.948 367.719,91.064 367.277 C 91.179 366.835,91.617 366.384,92.037 366.274 C 92.457 366.165,92.800 365.809,92.800 365.484 C 92.800 365.159,93.160 364.799,93.600 364.684 C 94.040 364.569,94.400 364.209,94.400 363.884 C 94.400 363.559,94.760 363.199,95.200 363.084 C 95.640 362.969,96.000 362.588,96.000 362.237 C 96.000 361.887,96.258 361.600,96.573 361.600 C 96.888 361.600,97.260 361.240,97.400 360.800 C 97.540 360.360,97.900 360.000,98.200 360.000 C 98.500 360.000,98.860 359.640,99.000 359.200 C 99.140 358.760,99.529 358.400,99.864 358.400 C 100.200 358.400,100.569 358.040,100.684 357.600 C 100.799 357.160,101.062 356.800,101.268 356.800 C 101.751 356.800,108.400 350.144,108.400 349.660 C 108.400 349.458,108.760 349.199,109.200 349.084 C 109.640 348.969,110.000 348.609,110.000 348.284 C 110.000 347.959,110.360 347.599,110.800 347.484 C 111.240 347.369,111.600 347.009,111.600 346.684 C 111.600 346.359,111.960 345.999,112.400 345.884 C 112.840 345.769,113.200 345.409,113.200 345.084 C 113.200 344.759,113.560 344.399,114.000 344.284 C 114.440 344.169,114.800 343.788,114.800 343.437 C 114.800 343.087,114.982 342.800,115.204 342.800 C 115.731 342.800,125.600 332.931,125.600 332.404 C 125.600 332.182,125.960 332.000,126.400 332.000 C 126.933 332.000,127.200 331.733,127.200 331.200 C 127.200 330.667,127.467 330.400,128.000 330.400 C 128.533 330.400,128.800 330.133,128.800 329.600 C 128.800 329.067,129.067 328.800,129.600 328.800 C 130.133 328.800,130.400 328.533,130.400 328.000 C 130.400 327.467,130.667 327.200,131.200 327.200 C 131.733 327.200,132.000 326.933,132.000 326.400 C 132.000 325.960,132.190 325.600,132.421 325.600 C 132.653 325.600,134.890 323.530,137.392 321.000 C 139.894 318.470,142.134 316.400,142.370 316.400 C 142.607 316.400,142.800 316.040,142.800 315.600 C 142.800 315.067,143.067 314.800,143.600 314.800 C 144.133 314.800,144.400 314.533,144.400 314.000 C 144.400 313.467,144.667 313.200,145.200 313.200 C 145.733 313.200,146.000 312.933,146.000 312.400 C 146.000 311.867,146.267 311.600,146.800 311.600 C 147.333 311.600,147.600 311.333,147.600 310.800 C 147.600 310.267,147.867 310.000,148.400 310.000 C 148.933 310.000,149.200 309.733,149.200 309.200 C 149.200 308.760,149.361 308.400,149.558 308.400 C 150.026 308.400,158.400 300.026,158.400 299.558 C 158.400 299.361,158.760 299.200,159.200 299.200 C 159.733 299.200,160.000 298.933,160.000 298.400 C 160.000 297.867,160.267 297.600,160.800 297.600 C 161.333 297.600,161.600 297.333,161.600 296.800 C 161.600 296.267,161.867 296.000,162.400 296.000 C 162.933 296.000,163.200 295.733,163.200 295.200 C 163.200 294.667,163.467 294.400,164.000 294.400 C 164.533 294.400,164.800 294.133,164.800 293.600 C 164.800 293.067,165.067 292.800,165.600 292.800 C 166.040 292.800,166.400 292.595,166.400 292.345 C 166.400 292.095,168.470 289.858,171.000 287.375 C 173.530 284.891,175.600 282.666,175.600 282.430 C 175.600 282.193,175.960 282.000,176.400 282.000 C 176.933 282.000,177.200 281.733,177.200 281.200 C 177.200 280.667,177.467 280.400,178.000 280.400 C 178.533 280.400,178.800 280.133,178.800 279.600 C 178.800 279.067,179.067 278.800,179.600 278.800 C 180.133 278.800,180.400 278.533,180.400 278.000 C 180.400 277.467,180.667 277.200,181.200 277.200 C 181.733 277.200,182.000 276.933,182.000 276.400 C 182.000 275.948,182.267 275.600,182.613 275.600 C 182.949 275.600,183.326 275.337,183.450 275.015 C 183.573 274.694,184.017 274.321,184.437 274.188 C 184.857 274.055,185.200 273.700,185.200 273.400 C 185.200 273.100,185.560 272.740,186.000 272.600 C 186.440 272.460,186.800 272.186,186.800 271.991 C 186.800 271.530,188.730 269.600,189.191 269.600 C 189.386 269.600,189.660 269.240,189.800 268.800 C 189.940 268.360,190.300 268.000,190.600 268.000 C 190.900 268.000,191.260 267.640,191.400 267.200 C 191.540 266.760,191.912 266.400,192.227 266.400 C 192.542 266.400,192.800 266.040,192.800 265.600 C 192.800 265.067,193.067 264.800,193.600 264.800 C 194.133 264.800,194.400 264.533,194.400 264.000 C 194.400 263.467,194.667 263.200,195.200 263.200 C 195.733 263.200,196.000 262.933,196.000 262.400 C 196.000 261.867,196.267 261.600,196.800 261.600 C 197.333 261.600,197.600 261.333,197.600 260.800 C 197.600 260.267,197.867 260.000,198.400 260.000 C 198.933 260.000,199.200 259.733,199.200 259.200 C 199.200 258.537,199.467 258.400,200.753 258.400 C 201.970 258.400,202.352 258.573,202.516 259.200 C 202.631 259.640,203.012 260.000,203.363 260.000 C 203.733 260.000,204.000 260.335,204.000 260.800 C 204.000 261.317,204.267 261.600,204.753 261.600 C 205.170 261.600,205.600 261.957,205.716 262.400 C 205.831 262.840,206.212 263.200,206.563 263.200 C 206.913 263.200,207.200 263.487,207.200 263.837 C 207.200 264.188,207.560 264.569,208.000 264.684 C 208.443 264.800,208.800 265.230,208.800 265.647 C 208.800 266.118,209.082 266.400,209.553 266.400 C 209.970 266.400,210.400 266.757,210.516 267.200 C 210.631 267.640,211.012 268.000,211.363 268.000 C 211.713 268.000,212.000 268.183,212.000 268.406 C 212.000 268.906,218.650 275.600,219.148 275.600 C 219.345 275.600,219.601 275.960,219.716 276.400 C 219.831 276.840,220.212 277.200,220.563 277.200 C 220.933 277.200,221.200 277.535,221.200 278.000 C 221.200 278.517,221.467 278.800,221.953 278.800 C 222.370 278.800,222.800 279.157,222.916 279.600 C 223.031 280.040,223.391 280.400,223.716 280.400 C 224.041 280.400,224.401 280.760,224.516 281.200 C 224.631 281.640,224.991 282.000,225.316 282.000 C 225.641 282.000,226.001 282.360,226.116 282.800 C 226.231 283.240,226.591 283.600,226.916 283.600 C 227.241 283.600,227.601 283.960,227.716 284.400 C 227.831 284.840,228.212 285.200,228.563 285.200 C 228.913 285.200,229.200 285.372,229.200 285.583 C 229.200 286.054,235.903 292.800,236.370 292.800 C 236.555 292.800,236.801 293.160,236.916 293.600 C 237.031 294.040,237.412 294.400,237.763 294.400 C 238.133 294.400,238.400 294.735,238.400 295.200 C 238.400 295.717,238.667 296.000,239.153 296.000 C 239.570 296.000,240.000 296.357,240.116 296.800 C 240.231 297.240,240.612 297.600,240.963 297.600 C 241.333 297.600,241.600 297.935,241.600 298.400 C 241.600 298.917,241.867 299.200,242.353 299.200 C 242.770 299.200,243.200 299.557,243.316 300.000 C 243.431 300.440,243.812 300.800,244.163 300.800 C 244.513 300.800,244.800 300.972,244.800 301.183 C 244.800 301.654,251.503 308.400,251.970 308.400 C 252.155 308.400,252.401 308.760,252.516 309.200 C 252.631 309.640,253.012 310.000,253.363 310.000 C 253.733 310.000,254.000 310.335,254.000 310.800 C 254.000 311.317,254.267 311.600,254.753 311.600 C 255.170 311.600,255.600 311.957,255.716 312.400 C 255.831 312.840,256.191 313.200,256.516 313.200 C 256.841 313.200,257.201 313.560,257.316 314.000 C 257.431 314.440,257.812 314.800,258.163 314.800 C 258.533 314.800,258.800 315.135,258.800 315.600 C 258.800 316.117,259.067 316.400,259.553 316.400 C 259.970 316.400,260.400 316.757,260.516 317.200 C 260.631 317.640,261.012 318.000,261.363 318.000 C 261.713 318.000,262.000 318.172,262.000 318.383 C 262.000 318.854,268.703 325.600,269.170 325.600 C 269.355 325.600,269.601 325.960,269.716 326.400 C 269.831 326.840,270.212 327.200,270.563 327.200 C 270.933 327.200,271.200 327.535,271.200 328.000 C 271.200 328.440,271.456 328.800,271.768 328.800 C 272.404 328.800,275.769 332.020,276.138 332.982 C 276.268 333.322,276.630 333.600,276.941 333.600 C 277.252 333.600,277.601 333.960,277.716 334.400 C 277.831 334.840,278.212 335.200,278.563 335.200 C 278.913 335.200,279.200 335.372,279.200 335.583 C 279.200 336.069,285.866 342.800,286.348 342.800 C 286.545 342.800,286.801 343.160,286.916 343.600 C 287.031 344.040,287.391 344.400,287.716 344.400 C 288.041 344.400,288.401 344.760,288.516 345.200 C 288.631 345.640,288.991 346.000,289.316 346.000 C 289.641 346.000,290.001 346.360,290.116 346.800 C 290.231 347.240,290.591 347.600,290.916 347.600 C 291.241 347.600,291.601 347.960,291.716 348.400 C 291.831 348.840,292.191 349.200,292.516 349.200 C 292.841 349.200,293.201 349.560,293.316 350.000 C 293.431 350.440,293.812 350.800,294.163 350.800 C 294.513 350.800,294.800 350.994,294.800 351.231 C 294.800 351.468,295.326 352.188,295.969 352.831 C 296.612 353.474,297.332 354.000,297.569 354.000 C 297.806 354.000,298.000 354.249,298.000 354.553 C 298.000 354.858,298.360 355.201,298.800 355.316 C 299.240 355.431,299.600 355.812,299.600 356.163 C 299.600 356.513,299.870 356.800,300.200 356.800 C 300.530 356.800,300.800 357.087,300.800 357.437 C 300.800 357.788,301.143 358.165,301.563 358.274 C 301.983 358.384,302.416 358.817,302.526 359.237 C 302.635 359.657,302.991 360.000,303.316 360.000 C 303.641 360.000,304.001 360.360,304.116 360.800 C 304.231 361.240,304.591 361.600,304.916 361.600 C 305.241 361.600,305.601 361.960,305.716 362.400 C 305.831 362.840,306.191 363.200,306.516 363.200 C 306.841 363.200,307.201 363.560,307.316 364.000 C 307.431 364.440,307.791 364.800,308.116 364.800 C 308.441 364.800,308.801 365.160,308.916 365.600 C 309.031 366.040,309.391 366.400,309.716 366.400 C 310.041 366.400,310.401 366.760,310.516 367.200 C 310.631 367.640,310.991 368.000,311.316 368.000 C 311.641 368.000,312.006 368.378,312.126 368.840 C 312.256 369.337,312.532 369.566,312.800 369.400 C 313.066 369.236,313.341 369.452,313.464 369.923 C 313.579 370.365,314.017 370.816,314.437 370.926 C 314.857 371.035,315.200 371.391,315.200 371.716 C 315.200 372.041,315.560 372.401,316.000 372.516 C 316.440 372.631,316.800 373.012,316.800 373.363 C 316.800 373.713,317.049 374.000,317.353 374.000 C 317.658 374.000,318.001 374.360,318.116 374.800 C 318.231 375.240,318.591 375.600,318.916 375.600 C 319.241 375.600,319.601 375.960,319.716 376.400 C 319.831 376.840,320.212 377.200,320.563 377.200 C 320.913 377.200,321.200 377.458,321.200 377.773 C 321.200 378.088,321.541 378.454,321.957 378.586 C 322.373 378.718,322.806 379.181,322.919 379.613 C 323.033 380.046,323.391 380.400,323.716 380.400 C 324.041 380.400,324.401 380.760,324.516 381.200 C 324.631 381.640,325.012 382.000,325.363 382.000 C 325.713 382.000,326.000 382.258,326.000 382.573 C 326.000 382.888,326.360 383.260,326.800 383.400 C 327.240 383.540,327.600 383.900,327.600 384.200 C 327.600 384.500,327.960 384.860,328.400 385.000 C 328.840 385.140,329.200 385.500,329.200 385.800 C 329.200 386.100,329.560 386.460,330.000 386.600 C 330.440 386.740,330.800 387.091,330.800 387.380 C 330.800 387.670,331.160 388.001,331.600 388.116 C 332.040 388.231,332.400 388.612,332.400 388.963 C 332.400 389.313,332.658 389.600,332.973 389.600 C 333.288 389.600,333.660 389.960,333.800 390.400 C 333.940 390.840,334.300 391.200,334.600 391.200 C 334.900 391.200,335.260 391.560,335.400 392.000 C 335.540 392.440,335.867 392.802,336.127 392.804 C 336.387 392.806,337.230 393.524,338.000 394.400 C 338.962 395.494,339.729 395.993,340.453 395.996 C 341.168 395.999,341.574 396.257,341.716 396.800 C 341.831 397.240,342.219 397.600,342.579 397.600 C 342.939 397.600,343.620 397.960,344.092 398.400 C 344.564 398.840,345.277 399.200,345.675 399.200 C 346.074 399.200,346.400 399.380,346.400 399.600 C 346.400 399.831,347.667 400.000,349.400 400.000 C 351.688 400.000,352.400 399.869,352.400 399.447 C 352.400 398.865,351.226 398.415,349.687 398.405 C 349.186 398.402,348.671 398.130,348.545 397.800 C 348.414 397.460,347.818 397.200,347.171 397.200 C 346.440 397.200,345.875 396.914,345.603 396.405 C 345.368 395.967,344.732 395.498,344.188 395.361 C 343.645 395.225,343.200 394.965,343.200 394.784 C 343.200 394.602,342.835 394.338,342.388 394.196 C 341.941 394.054,331.650 384.052,319.518 371.969 C 307.387 359.886,297.312 350.000,297.130 350.000 C 296.949 350.000,296.800 349.854,296.800 349.675 C 296.800 349.497,294.895 347.472,292.566 345.175 C 290.238 342.879,288.123 340.775,287.866 340.501 C 287.610 340.226,286.903 339.461,286.297 338.801 C 285.690 338.140,285.015 337.600,284.797 337.600 C 284.578 337.600,284.399 337.465,284.398 337.300 C 284.396 336.893,286.904 339.418,241.879 294.500 C 213.843 266.531,201.427 254.400,200.835 254.400 C 200.242 254.400,185.311 269.058,151.227 303.100 M0.000 370.967 C 0.000 373.789,0.156 375.600,0.400 375.600 C 0.620 375.600,0.800 376.607,0.800 377.837 C 0.800 379.738,0.920 380.106,1.600 380.284 C 2.166 380.432,2.400 380.830,2.400 381.643 C 2.400 382.360,2.701 382.981,3.200 383.293 C 3.679 383.592,4.000 384.226,4.000 384.874 C 4.000 385.468,4.327 386.190,4.726 386.477 C 5.126 386.765,5.570 387.315,5.714 387.700 C 5.857 388.085,6.251 388.400,6.587 388.400 C 6.924 388.400,7.200 388.687,7.200 389.037 C 7.200 389.388,7.560 389.769,8.000 389.884 C 8.443 390.000,8.800 390.430,8.800 390.847 C 8.800 391.333,9.083 391.600,9.600 391.600 C 10.044 391.600,10.400 391.867,10.400 392.200 C 10.400 392.533,10.756 392.800,11.200 392.800 C 11.733 392.800,12.000 393.067,12.000 393.600 C 12.000 394.044,12.267 394.400,12.600 394.400 C 12.930 394.400,13.200 394.674,13.200 395.010 C 13.200 395.345,13.650 395.791,14.200 396.000 C 14.750 396.209,15.200 396.655,15.200 396.990 C 15.200 397.416,15.607 397.600,16.553 397.600 C 17.570 397.600,17.959 397.799,18.116 398.400 C 18.276 399.013,18.662 399.200,19.763 399.200 C 20.553 399.200,21.200 399.380,21.200 399.600 C 21.200 399.822,22.267 400.000,23.600 400.000 C 25.377 400.000,26.000 399.856,26.000 399.447 C 26.000 398.853,24.819 398.414,23.196 398.405 C 22.630 398.402,21.975 398.051,21.693 397.600 C 21.418 397.160,20.835 396.800,20.397 396.800 C 19.958 396.800,19.240 396.440,18.800 396.000 C 18.360 395.560,17.745 395.200,17.433 395.200 C 15.949 395.200,6.681 385.675,6.341 383.800 C 6.261 383.360,5.803 382.827,5.324 382.617 C 4.644 382.317,4.501 381.997,4.669 381.154 C 4.834 380.331,4.685 379.967,4.043 379.623 C 3.378 379.267,3.200 378.793,3.200 377.376 C 3.200 375.846,3.057 375.526,2.236 375.214 C 1.337 374.872,1.284 374.691,1.457 372.524 C 1.677 369.776,1.190 366.730,0.494 366.498 C 0.121 366.374,0.000 367.466,0.000 370.967 M398.814 376.374 C 398.586 376.799,398.400 377.656,398.400 378.277 C 398.400 378.974,398.093 379.599,397.600 379.907 C 397.148 380.190,396.800 380.840,396.800 381.403 C 396.800 381.952,396.440 382.760,396.000 383.200 C 395.560 383.640,395.200 384.272,395.200 384.604 C 395.200 384.936,392.952 387.456,390.204 390.204 C 387.456 392.952,384.936 395.200,384.604 395.200 C 384.272 395.200,383.640 395.560,383.200 396.000 C 382.760 396.440,381.952 396.800,381.403 396.800 C 380.840 396.800,380.190 397.148,379.907 397.600 C 379.599 398.093,378.974 398.400,378.277 398.400 C 377.000 398.400,375.600 399.035,375.600 399.614 C 375.600 399.826,376.680 400.000,378.000 400.000 C 379.333 400.000,380.400 399.822,380.400 399.600 C 380.400 399.380,381.047 399.200,381.837 399.200 C 382.938 399.200,383.324 399.013,383.484 398.400 C 383.643 397.794,384.030 397.600,385.084 397.600 C 386.116 397.600,386.526 397.403,386.674 396.837 C 386.784 396.417,387.217 395.984,387.637 395.874 C 388.057 395.765,388.400 395.388,388.400 395.037 C 388.400 394.667,388.735 394.400,389.200 394.400 C 389.733 394.400,390.000 394.133,390.000 393.600 C 390.000 393.067,390.267 392.800,390.800 392.800 C 391.244 392.800,391.600 392.533,391.600 392.200 C 391.600 391.870,391.870 391.600,392.200 391.600 C 392.533 391.600,392.800 391.244,392.800 390.800 C 392.800 390.267,393.067 390.000,393.600 390.000 C 394.117 390.000,394.400 389.733,394.400 389.247 C 394.400 388.830,394.757 388.400,395.200 388.284 C 395.640 388.169,396.000 387.809,396.000 387.484 C 396.000 387.159,396.360 386.799,396.800 386.684 C 397.406 386.525,397.600 386.138,397.600 385.084 C 397.600 384.030,397.794 383.643,398.400 383.484 C 399.013 383.324,399.200 382.938,399.200 381.837 C 399.200 381.047,399.380 380.400,399.600 380.400 C 399.822 380.400,400.000 379.333,400.000 378.000 C 400.000 375.565,399.566 374.970,398.814 376.374 " stroke="none" fill="#d14646" fill-rule="evenodd"></path><path id="path1" d="M35.526 0.421 C 35.208 1.377,28.337 2.069,27.800 1.200 C 27.399 0.551,26.800 0.742,26.800 1.520 C 26.800 2.660,25.969 3.200,24.216 3.200 C 22.998 3.200,22.461 3.411,22.065 4.044 C 21.655 4.701,21.280 4.836,20.369 4.654 C 19.404 4.461,19.200 4.553,19.200 5.183 C 19.200 5.606,18.827 6.065,18.362 6.212 C 15.099 7.248,7.248 15.099,6.212 18.362 C 6.065 18.827,5.606 19.200,5.183 19.200 C 4.553 19.200,4.461 19.404,4.654 20.369 C 4.836 21.280,4.701 21.655,4.044 22.065 C 3.411 22.461,3.200 22.998,3.200 24.216 C 3.200 25.969,2.660 26.800,1.520 26.800 C 0.742 26.800,0.551 27.399,1.200 27.800 C 2.069 28.337,1.377 35.208,0.421 35.526 C -0.218 35.739,-0.096 39.561,0.571 40.228 C 1.282 40.940,1.781 44.707,1.444 46.818 C 1.300 47.718,1.353 48.400,1.567 48.400 C 2.399 48.400,3.200 49.740,3.200 51.132 C 3.200 52.196,3.433 52.753,4.037 53.130 C 4.669 53.525,4.812 53.899,4.621 54.660 C 4.420 55.461,4.539 55.711,5.204 55.885 C 5.723 56.021,6.128 56.540,6.270 57.252 C 6.397 57.883,6.645 58.400,6.823 58.400 C 7.001 58.400,7.262 58.764,7.403 59.210 C 7.544 59.655,19.977 72.381,35.030 87.490 C 50.084 102.599,62.400 115.104,62.400 115.280 C 62.400 115.456,62.535 115.602,62.700 115.603 C 63.102 115.608,60.559 113.082,106.500 159.124 C 138.348 191.043,147.200 200.128,147.200 200.895 C 147.200 201.666,132.424 216.670,78.321 270.838 C 14.728 334.508,7.600 341.760,7.600 342.798 C 7.600 342.997,7.350 343.304,7.045 343.480 C 6.739 343.656,6.423 344.155,6.341 344.590 C 6.260 345.024,5.835 345.564,5.396 345.790 C 4.888 346.052,4.645 346.518,4.725 347.081 C 4.804 347.633,4.543 348.154,4.025 348.477 C 3.435 348.846,3.200 349.411,3.200 350.464 C 3.200 352.447,2.860 353.200,1.965 353.200 C 1.309 353.200,1.245 353.420,1.458 354.968 C 1.777 357.301,1.288 361.054,0.571 361.772 C -0.256 362.599,-0.184 365.977,0.675 366.605 C 1.219 367.003,1.364 367.860,1.423 371.021 C 1.490 374.624,1.565 374.969,2.348 375.259 C 3.044 375.517,3.200 375.903,3.200 377.373 C 3.200 378.793,3.378 379.267,4.043 379.623 C 4.685 379.967,4.834 380.331,4.669 381.154 C 4.501 381.997,4.644 382.317,5.324 382.617 C 5.803 382.827,6.261 383.360,6.341 383.800 C 6.681 385.675,15.949 395.200,17.433 395.200 C 17.745 395.200,18.360 395.560,18.800 396.000 C 19.240 396.440,19.958 396.800,20.397 396.800 C 20.835 396.800,21.418 397.160,21.693 397.600 C 21.975 398.051,22.630 398.402,23.196 398.405 C 24.819 398.414,26.000 398.853,26.000 399.447 C 26.000 400.474,48.561 400.239,49.600 399.200 C 50.086 398.714,50.933 398.400,51.757 398.400 C 52.595 398.400,53.203 398.170,53.345 397.800 C 53.471 397.470,54.020 397.200,54.565 397.200 C 55.109 397.200,55.790 396.869,56.077 396.465 C 56.365 396.060,57.090 395.608,57.688 395.460 C 58.892 395.162,72.954 381.278,151.227 303.100 C 185.311 269.058,200.242 254.400,200.835 254.400 C 201.427 254.400,213.843 266.531,241.879 294.500 C 286.904 339.418,284.396 336.893,284.398 337.300 C 284.399 337.465,284.578 337.600,284.797 337.600 C 285.015 337.600,285.690 338.140,286.297 338.801 C 286.903 339.461,287.610 340.226,287.866 340.501 C 288.123 340.775,290.238 342.879,292.566 345.175 C 294.895 347.472,296.800 349.497,296.800 349.675 C 296.800 349.854,296.949 350.000,297.130 350.000 C 297.312 350.000,307.387 359.886,319.518 371.969 C 331.650 384.052,341.941 394.054,342.388 394.196 C 342.835 394.338,343.200 394.602,343.200 394.784 C 343.200 394.965,343.645 395.225,344.188 395.361 C 344.732 395.498,345.368 395.967,345.603 396.405 C 345.875 396.914,346.440 397.200,347.171 397.200 C 347.818 397.200,348.414 397.460,348.545 397.800 C 348.671 398.130,349.186 398.402,349.687 398.405 C 351.226 398.415,352.400 398.865,352.400 399.447 C 352.400 400.474,374.961 400.239,376.000 399.200 C 376.473 398.727,377.333 398.400,378.104 398.400 C 378.974 398.400,379.574 398.134,379.907 397.600 C 380.190 397.148,380.840 396.800,381.403 396.800 C 381.952 396.800,382.760 396.440,383.200 396.000 C 383.640 395.560,384.272 395.200,384.604 395.200 C 385.392 395.200,395.200 385.392,395.200 384.604 C 395.200 384.272,395.560 383.640,396.000 383.200 C 396.440 382.760,396.800 381.952,396.800 381.403 C 396.800 380.840,397.148 380.190,397.600 379.907 C 398.134 379.574,398.400 378.974,398.400 378.104 C 398.400 377.333,398.727 376.473,399.200 376.000 C 400.239 374.961,400.474 352.400,399.447 352.400 C 398.865 352.400,398.415 351.226,398.405 349.687 C 398.402 349.186,398.130 348.671,397.800 348.545 C 397.460 348.414,397.200 347.818,397.200 347.171 C 397.200 346.440,396.914 345.875,396.405 345.603 C 395.967 345.368,395.498 344.732,395.361 344.188 C 395.225 343.645,394.965 343.200,394.784 343.200 C 394.602 343.200,394.340 342.841,394.201 342.403 C 394.062 341.964,362.550 310.152,324.174 271.709 C 272.214 219.658,254.400 201.580,254.400 200.900 C 254.400 200.222,266.907 187.465,303.100 151.227 C 381.328 72.902,395.162 58.892,395.460 57.688 C 395.608 57.090,396.060 56.365,396.465 56.077 C 396.869 55.790,397.200 55.109,397.200 54.565 C 397.200 54.020,397.470 53.471,397.800 53.345 C 398.170 53.203,398.400 52.595,398.400 51.757 C 398.400 50.933,398.714 50.086,399.200 49.600 C 400.239 48.561,400.474 26.000,399.447 26.000 C 398.853 26.000,398.414 24.819,398.405 23.196 C 398.402 22.630,398.051 21.975,397.600 21.693 C 397.160 21.418,396.800 20.835,396.800 20.397 C 396.800 19.958,396.440 19.240,396.000 18.800 C 395.560 18.360,395.200 17.745,395.200 17.433 C 395.200 15.949,385.675 6.681,383.800 6.341 C 383.360 6.261,382.827 5.803,382.617 5.324 C 382.317 4.644,381.997 4.501,381.154 4.669 C 380.337 4.833,379.967 4.685,379.634 4.064 C 379.304 3.447,378.724 3.213,377.298 3.122 C 375.755 3.023,375.379 2.850,375.285 2.200 C 375.179 1.461,374.862 1.399,371.146 1.391 C 367.803 1.383,367.037 1.265,366.617 0.691 C 365.978 -0.183,362.609 -0.266,361.772 0.571 C 361.054 1.288,357.301 1.777,354.968 1.458 C 353.420 1.245,353.200 1.309,353.200 1.965 C 353.200 2.860,352.447 3.200,350.464 3.200 C 349.411 3.200,348.846 3.435,348.477 4.025 C 348.154 4.543,347.633 4.804,347.081 4.725 C 346.518 4.645,346.052 4.888,345.790 5.396 C 345.564 5.835,345.024 6.260,344.590 6.341 C 344.155 6.423,343.656 6.739,343.480 7.045 C 343.304 7.350,342.997 7.600,342.798 7.600 C 341.760 7.600,334.531 14.705,271.200 77.970 C 233.470 115.661,202.195 146.768,201.699 147.096 C 200.384 147.968,204.324 151.790,129.097 76.663 C 91.091 38.707,59.636 7.538,59.197 7.399 C 58.759 7.260,58.400 7.001,58.400 6.823 C 58.400 6.645,57.883 6.397,57.252 6.270 C 56.540 6.128,56.021 5.723,55.885 5.204 C 55.711 4.539,55.461 4.420,54.660 4.621 C 53.899 4.812,53.525 4.669,53.130 4.037 C 52.753 3.433,52.196 3.200,51.132 3.200 C 49.740 3.200,48.400 2.399,48.400 1.567 C 48.400 1.353,47.718 1.300,46.818 1.444 C 44.707 1.781,40.940 1.282,40.228 0.571 C 39.561 -0.096,35.739 -0.218,35.526 0.421 M347.144 1.587 C 346.474 2.145,346.375 2.377,346.804 2.387 C 347.136 2.394,347.632 2.040,347.907 1.600 C 348.536 0.593,348.341 0.589,347.144 1.587 M18.392 3.010 C 18.114 3.345,18.002 3.735,18.143 3.876 C 18.284 4.018,18.400 3.913,18.400 3.643 C 18.400 3.373,18.608 3.281,18.862 3.438 C 19.135 3.607,19.216 3.549,19.059 3.296 C 18.914 3.061,19.021 2.777,19.298 2.666 C 19.611 2.540,19.630 2.451,19.349 2.432 C 19.101 2.414,18.670 2.674,18.392 3.010 M56.878 3.176 C 57.161 3.629,57.630 4.000,57.920 4.000 C 58.601 4.000,58.180 3.325,57.159 2.778 C 56.428 2.387,56.405 2.419,56.878 3.176 M59.886 4.807 C 60.000 5.243,60.342 5.600,60.647 5.600 C 61.449 5.600,61.325 4.895,60.439 4.421 C 59.792 4.075,59.710 4.132,59.886 4.807 M2.792 18.610 C 2.514 18.945,2.402 19.335,2.543 19.476 C 2.684 19.618,2.800 19.513,2.800 19.243 C 2.800 18.973,3.008 18.881,3.262 19.038 C 3.535 19.207,3.616 19.149,3.459 18.896 C 3.314 18.661,3.421 18.377,3.698 18.266 C 4.011 18.140,4.030 18.051,3.749 18.032 C 3.501 18.014,3.070 18.274,2.792 18.610 M2.778 57.159 C 3.325 58.180,4.000 58.601,4.000 57.920 C 4.000 57.630,3.629 57.161,3.176 56.878 C 2.419 56.405,2.387 56.428,2.778 57.159 M4.421 60.439 C 4.895 61.325,5.600 61.449,5.600 60.647 C 5.600 60.342,5.243 60.000,4.807 59.886 C 4.132 59.710,4.075 59.792,4.421 60.439 M16.475 73.400 C 16.953 73.950,17.483 74.400,17.653 74.400 C 17.823 74.400,17.545 73.950,17.035 73.400 C 16.525 72.850,15.995 72.400,15.857 72.400 C 15.718 72.400,15.997 72.850,16.475 73.400 M30.404 87.119 C 30.410 87.479,32.812 89.771,33.600 90.167 C 33.930 90.334,33.837 90.139,33.394 89.735 C 32.951 89.331,32.096 88.514,31.494 87.919 C 30.892 87.325,30.402 86.965,30.404 87.119 M47.646 104.537 C 47.620 104.952,47.934 105.362,48.363 105.474 C 48.783 105.584,49.216 106.017,49.326 106.437 C 49.435 106.857,49.767 107.197,50.063 107.194 C 50.415 107.190,50.452 107.086,50.171 106.894 C 49.935 106.732,49.625 106.285,49.483 105.900 C 49.341 105.515,48.963 105.200,48.642 105.200 C 48.321 105.200,47.976 104.885,47.876 104.500 C 47.710 103.864,47.689 103.868,47.646 104.537 M396.000 340.953 C 396.000 341.258,396.357 341.600,396.793 341.714 C 397.468 341.890,397.525 341.808,397.179 341.161 C 396.705 340.275,396.000 340.151,396.000 340.953 M1.711 346.900 C 0.730 348.169,0.684 348.479,1.558 347.933 C 2.021 347.644,2.400 347.181,2.400 346.904 C 2.400 346.267,2.202 346.266,1.711 346.900 M297.646 354.537 C 297.620 354.952,297.934 355.362,298.363 355.474 C 298.783 355.584,299.216 356.017,299.326 356.437 C 299.438 356.866,299.848 357.180,300.263 357.154 C 300.876 357.115,300.890 357.078,300.341 356.932 C 299.979 356.836,299.590 356.407,299.478 355.979 C 299.367 355.550,299.001 355.200,298.667 355.200 C 298.332 355.200,297.976 354.885,297.876 354.500 C 297.710 353.864,297.689 353.868,297.646 354.537 M340.400 396.386 C 340.400 396.598,340.742 396.955,341.161 397.179 C 341.808 397.525,341.890 397.468,341.714 396.793 C 341.507 396.000,340.400 395.657,340.400 396.386 " stroke="none" fill="#fe0000" fill-rule="evenodd"></path></g></svg>